<svg xmlns="http://www.w3.org/2000/svg" height="512pt" version="1.1" viewBox="0 0 512 512.00033" width="512pt">
<g id="surface1">
<path d="M 34.816406 375.613281 C 31.589844 375.617188 28.640625 373.800781 27.1875 370.921875 C -15.222656 286.34375 -7.578125 185.277344 47.070312 108.039062 C 49.730469 104.148438 55.039062 103.152344 58.929688 105.8125 C 62.820312 108.472656 63.816406 113.78125 61.160156 117.671875 C 61.101562 117.753906 61.046875 117.835938 60.988281 117.914062 C 9.996094 189.996094 2.863281 284.308594 42.425781 363.242188 C 44.546875 367.449219 42.851562 372.582031 38.640625 374.699219 C 37.453125 375.300781 36.144531 375.613281 34.816406 375.613281 Z M 34.816406 375.613281 " style=" stroke:none;fill-rule:nonzero;fill:rgb(77.647059%,77.254902%,79.215686%);fill-opacity:1;" />
<path d="M 255.996094 512 C 202.976562 512.117188 151.242188 495.660156 108.039062 464.929688 C 104.105469 462.332031 103.023438 457.039062 105.625 453.105469 C 108.222656 449.175781 113.515625 448.09375 117.445312 450.691406 C 117.605469 450.796875 117.761719 450.90625 117.910156 451.023438 C 190.007812 502.011719 284.332031 509.136719 363.273438 469.554688 C 367.496094 467.464844 372.613281 469.195312 374.707031 473.417969 C 376.777344 477.597656 375.105469 482.667969 370.953125 484.796875 C 335.3125 502.792969 295.921875 512.113281 255.996094 512 Z M 255.996094 512 " style=" stroke:none;fill-rule:nonzero;fill:rgb(77.647059%,77.254902%,79.215686%);fill-opacity:1;" />
<path d="M 458.402344 406.929688 C 453.6875 406.929688 449.867188 403.105469 449.871094 398.394531 C 449.871094 396.636719 450.417969 394.921875 451.429688 393.484375 C 502.039062 321.464844 509.007812 227.472656 469.570312 148.777344 C 467.417969 144.585938 469.074219 139.441406 473.269531 137.289062 C 477.460938 135.140625 482.605469 136.796875 484.753906 140.988281 C 484.773438 141.023438 484.792969 141.0625 484.808594 141.097656 C 527.082031 225.414062 519.621094 326.132812 465.378906 403.296875 C 463.785156 405.570312 461.179688 406.929688 458.402344 406.929688 Z M 458.402344 406.929688 " style=" stroke:none;fill-rule:nonzero;fill:rgb(77.647059%,77.254902%,79.215686%);fill-opacity:1;" />
<path d="M 398.394531 62.140625 C 396.636719 62.140625 394.921875 61.597656 393.488281 60.578125 C 321.414062 9.910156 227.320312 2.96875 148.589844 42.507812 C 144.394531 44.65625 139.25 43 137.101562 38.808594 C 134.949219 34.613281 136.605469 29.472656 140.800781 27.320312 C 140.835938 27.300781 140.871094 27.285156 140.910156 27.265625 C 225.269531 -15.109375 326.097656 -7.667969 403.328125 46.628906 C 407.183594 49.339844 408.109375 54.660156 405.398438 58.515625 C 403.796875 60.796875 401.183594 62.148438 398.394531 62.140625 Z M 398.394531 62.140625 " style=" stroke:none;fill-rule:nonzero;fill:rgb(77.647059%,77.254902%,79.215686%);fill-opacity:1;" />
<path d="M 64.980469 64.992188 C 58.316406 71.65625 58.320312 82.460938 64.984375 89.125 C 71.652344 95.789062 82.457031 95.789062 89.121094 89.121094 C 95.78125 82.457031 95.78125 71.65625 89.121094 64.992188 C 82.457031 58.324219 71.652344 58.324219 64.984375 64.984375 C 64.984375 64.988281 64.980469 64.988281 64.980469 64.992188 Z M 64.980469 64.992188 " style=" stroke:none;fill-rule:nonzero;fill:rgb(100%,71.372549%,33.333333%);fill-opacity:1;" />
<path d="M 153.597656 256.003906 C 153.597656 199.453125 199.441406 153.609375 255.996094 153.609375 L 255.996094 128.007812 C 185.304688 128.007812 127.996094 185.316406 127.996094 256.003906 C 127.996094 326.695312 185.304688 384.003906 255.996094 384.003906 L 255.996094 358.402344 C 199.441406 358.402344 153.597656 312.558594 153.597656 256.003906 Z M 153.597656 256.003906 " style=" stroke:none;fill-rule:nonzero;fill:rgb(100%,73.333333%,37.647059%);fill-opacity:1;" />
<path d="M 255.996094 128.007812 L 255.996094 153.605469 C 312.546875 153.605469 358.390625 199.453125 358.390625 256.003906 C 358.390625 312.558594 312.546875 358.402344 255.996094 358.402344 L 255.996094 384 C 326.683594 384 383.992188 326.695312 383.992188 256.003906 C 383.992188 185.3125 326.683594 128.007812 255.996094 128.007812 Z M 255.996094 128.007812 " style=" stroke:none;fill-rule:nonzero;fill:rgb(100%,77.647059%,48.235294%);fill-opacity:1;" />
<path d="M 264.527344 204.804688 L 281.59375 204.804688 C 291.019531 204.804688 298.660156 212.445312 298.660156 221.871094 L 298.660156 238.941406 C 298.660156 248.363281 291.019531 256.007812 281.59375 256.007812 C 291.019531 256.007812 298.660156 263.648438 298.660156 273.074219 L 298.660156 290.140625 C 298.660156 299.566406 291.019531 307.207031 281.59375 307.207031 L 255.996094 307.207031 L 255.996094 358.40625 C 312.546875 358.40625 358.390625 312.5625 358.390625 256.007812 C 358.390625 199.453125 312.546875 153.605469 255.996094 153.605469 L 255.996094 204.804688 Z M 264.527344 204.804688 " style=" stroke:none;fill-rule:nonzero;fill:rgb(100%,73.333333%,37.647059%);fill-opacity:1;" />
<path d="M 153.597656 256.003906 C 153.597656 312.558594 199.441406 358.402344 255.996094 358.402344 L 255.996094 307.203125 L 230.394531 307.203125 L 230.394531 204.804688 L 238.929688 204.804688 L 239.140625 179.207031 L 238.929688 204.804688 L 255.996094 204.804688 L 255.996094 153.605469 C 199.441406 153.605469 153.597656 199.453125 153.597656 256.003906 Z M 153.597656 256.003906 " style=" stroke:none;fill-rule:nonzero;fill:rgb(100%,68.627451%,27.45098%);fill-opacity:1;" />
<path d="M 281.59375 256.003906 C 291.019531 256.003906 298.660156 248.363281 298.660156 238.9375 L 298.660156 221.871094 C 298.660156 212.445312 291.019531 204.804688 281.59375 204.804688 L 255.996094 204.804688 L 255.996094 256.003906 Z M 281.59375 256.003906 " style=" stroke:none;fill-rule:nonzero;fill:rgb(100%,73.333333%,37.647059%);fill-opacity:1;" />
<path d="M 255.996094 204.804688 L 230.394531 204.804688 L 230.394531 256.003906 L 255.996094 256.003906 Z M 255.996094 204.804688 " style=" stroke:none;fill-rule:nonzero;fill:rgb(100%,68.627451%,27.45098%);fill-opacity:1;" />
<path d="M 230.394531 256.003906 L 230.394531 307.203125 L 255.996094 307.203125 L 255.996094 256.003906 Z M 230.394531 256.003906 " style=" stroke:none;fill-rule:nonzero;fill:rgb(100%,68.627451%,27.45098%);fill-opacity:1;" />
<path d="M 281.59375 307.203125 C 291.019531 307.203125 298.660156 299.5625 298.660156 290.136719 L 298.660156 273.070312 C 298.660156 263.644531 291.019531 256.003906 281.59375 256.003906 L 255.996094 256.003906 L 255.996094 307.203125 Z M 281.59375 307.203125 " style=" stroke:none;fill-rule:nonzero;fill:rgb(100%,73.333333%,37.647059%);fill-opacity:1;" />
<path d="M 307.195312 221.871094 C 307.195312 207.734375 295.734375 196.273438 281.59375 196.273438 L 273.0625 196.273438 L 273.0625 179.207031 L 255.996094 179.207031 L 255.996094 196.273438 L 247.53125 196.273438 L 247.667969 179.277344 L 247.460938 179.277344 L 247.460938 179.207031 L 239.132812 179.207031 L 230.601562 179.136719 L 230.601562 179.207031 L 230.394531 179.207031 L 230.394531 196.273438 L 204.796875 196.273438 L 204.796875 213.339844 L 221.863281 213.339844 L 221.863281 298.671875 L 204.796875 298.671875 L 204.796875 315.738281 L 230.394531 315.738281 L 230.394531 332.804688 L 247.460938 332.804688 L 247.460938 315.738281 L 255.996094 315.738281 L 255.996094 332.804688 L 273.0625 332.804688 L 273.0625 315.738281 L 281.59375 315.738281 C 295.734375 315.738281 307.195312 304.277344 307.195312 290.140625 L 307.195312 273.074219 C 307.171875 266.753906 304.800781 260.671875 300.539062 256.007812 C 304.796875 251.339844 307.171875 245.257812 307.195312 238.941406 Z M 238.929688 213.339844 L 281.59375 213.339844 C 286.308594 213.339844 290.128906 217.160156 290.128906 221.871094 L 290.128906 238.941406 C 290.128906 243.652344 286.308594 247.472656 281.59375 247.472656 L 238.929688 247.472656 Z M 290.128906 290.136719 C 290.128906 294.851562 286.308594 298.671875 281.59375 298.671875 L 238.929688 298.671875 L 238.929688 264.539062 L 281.59375 264.539062 C 286.308594 264.539062 290.128906 268.359375 290.128906 273.070312 Z M 290.128906 290.136719 " style=" stroke:none;fill-rule:nonzero;fill:rgb(100%,38.431373%,26.27451%);fill-opacity:1;" />
<path d="M 77.046875 102.648438 C 62.910156 102.652344 51.445312 91.191406 51.441406 77.054688 C 51.4375 62.914062 62.898438 51.453125 77.035156 51.449219 C 83.832031 51.445312 90.351562 54.148438 95.15625 58.957031 C 105.144531 68.960938 105.136719 85.167969 95.132812 95.160156 C 90.332031 99.953125 83.828125 102.644531 77.046875 102.648438 Z M 77.046875 102.648438 " style=" stroke:none;fill-rule:nonzero;fill:rgb(100%,65.490196%,20%);fill-opacity:1;" />
<path d="M 77.046875 128.253906 C 48.769531 128.257812 25.847656 105.335938 25.84375 77.058594 C 25.84375 48.78125 48.765625 25.859375 77.042969 25.859375 C 90.625 25.855469 103.648438 31.253906 113.253906 40.859375 C 133.242188 60.855469 133.238281 93.273438 113.242188 113.265625 C 103.640625 122.863281 90.621094 128.253906 77.046875 128.253906 Z M 77.046875 42.925781 C 58.195312 42.917969 42.910156 58.195312 42.90625 77.046875 C 42.902344 86.105469 46.5 94.792969 52.90625 101.195312 C 66.421875 114.074219 87.664062 114.074219 101.179688 101.195312 C 114.507812 87.867188 114.507812 66.253906 101.179688 52.925781 C 94.792969 46.507812 86.101562 42.90625 77.046875 42.933594 Z M 77.046875 42.925781 " style=" stroke:none;fill-rule:nonzero;fill:rgb(100%,71.372549%,33.333333%);fill-opacity:1;" />
<path d="M 77.046875 486.144531 C 48.769531 486.136719 25.851562 463.210938 25.859375 434.933594 C 25.863281 421.363281 31.253906 408.347656 40.847656 398.746094 C 60.839844 378.75 93.257812 378.746094 113.253906 398.734375 C 133.253906 418.726562 133.257812 451.144531 113.265625 471.140625 C 103.660156 480.75 90.632812 486.148438 77.046875 486.144531 Z M 77.046875 400.8125 C 67.988281 400.789062 59.296875 404.390625 52.90625 410.8125 C 39.574219 424.140625 39.570312 445.75 52.898438 459.082031 C 66.222656 472.414062 87.835938 472.417969 101.167969 459.09375 C 114.5 445.765625 114.503906 424.152344 101.175781 410.820312 C 94.777344 404.417969 86.09375 400.820312 77.039062 400.820312 Z M 77.046875 400.8125 " style=" stroke:none;fill-rule:nonzero;fill:rgb(100%,71.372549%,33.333333%);fill-opacity:1;" />
<path d="M 434.945312 486.144531 C 421.355469 486.183594 408.320312 480.785156 398.738281 471.152344 C 378.742188 451.15625 378.738281 418.742188 398.730469 398.746094 C 418.722656 378.75 451.140625 378.746094 471.136719 398.738281 C 491.132812 418.730469 491.132812 451.148438 471.144531 471.144531 C 461.542969 480.746094 448.519531 486.140625 434.945312 486.144531 Z M 434.945312 400.8125 C 416.09375 400.800781 400.804688 416.074219 400.792969 434.925781 C 400.789062 443.992188 404.390625 452.6875 410.804688 459.09375 C 424.132812 472.425781 445.742188 472.425781 459.074219 459.101562 C 472.40625 445.773438 472.410156 424.160156 459.082031 410.828125 C 452.679688 404.425781 443.996094 400.828125 434.945312 400.828125 Z M 434.945312 400.8125 " style=" stroke:none;fill-rule:nonzero;fill:rgb(100%,71.372549%,33.333333%);fill-opacity:1;" />
<path d="M 434.945312 68.53125 C 430.230469 68.535156 426.414062 72.359375 426.417969 77.070312 C 426.421875 81.785156 430.246094 85.601562 434.957031 85.597656 C 439.671875 85.59375 443.488281 81.769531 443.484375 77.058594 C 443.480469 74.792969 442.578125 72.621094 440.976562 71.023438 C 439.375 69.425781 437.203125 68.53125 434.945312 68.53125 Z M 434.945312 68.53125 " style=" stroke:none;fill-rule:nonzero;fill:rgb(100%,71.372549%,33.333333%);fill-opacity:1;" />
<path d="M 434.945312 128.253906 C 406.667969 128.257812 383.742188 105.335938 383.742188 77.058594 C 383.742188 48.78125 406.660156 25.859375 434.9375 25.859375 C 463.214844 25.855469 486.136719 48.777344 486.140625 77.054688 C 486.140625 90.636719 480.746094 103.660156 471.140625 113.261719 C 461.5625 122.894531 448.527344 128.292969 434.945312 128.253906 Z M 434.945312 42.925781 C 416.09375 42.921875 400.808594 58.203125 400.808594 77.054688 C 400.808594 86.105469 404.402344 94.789062 410.800781 101.1875 C 424.316406 114.066406 445.558594 114.066406 459.074219 101.1875 C 472.398438 87.851562 472.386719 66.242188 459.050781 52.917969 C 452.652344 46.527344 443.984375 42.9375 434.945312 42.933594 Z M 434.945312 42.925781 " style=" stroke:none;fill-rule:nonzero;fill:rgb(100%,71.372549%,33.333333%);fill-opacity:1;" />
<path d="M 435.4375 102.648438 C 421.300781 102.652344 409.835938 91.191406 409.832031 77.054688 C 409.828125 62.914062 421.289062 51.453125 435.425781 51.449219 C 442.222656 51.445312 448.742188 54.148438 453.546875 58.957031 C 463.535156 68.960938 463.527344 85.167969 453.523438 95.160156 C 448.722656 99.953125 442.21875 102.644531 435.4375 102.648438 Z M 435.4375 102.648438 " style=" stroke:none;fill-rule:nonzero;fill:rgb(100%,65.490196%,20%);fill-opacity:1;" />
<path d="M 435.4375 461.039062 C 421.300781 461.042969 409.835938 449.582031 409.832031 435.445312 C 409.828125 421.308594 421.289062 409.84375 435.425781 409.839844 C 442.222656 409.839844 448.742188 412.539062 453.546875 417.347656 C 463.535156 427.351562 463.527344 443.5625 453.523438 453.550781 C 448.722656 458.34375 442.21875 461.039062 435.4375 461.039062 Z M 435.4375 461.039062 " style=" stroke:none;fill-rule:nonzero;fill:rgb(100%,65.490196%,20%);fill-opacity:1;" />
<path d="M 77.046875 461.039062 C 62.910156 461.042969 51.445312 449.582031 51.441406 435.445312 C 51.4375 421.308594 62.898438 409.84375 77.035156 409.839844 C 83.832031 409.839844 90.351562 412.539062 95.15625 417.347656 C 105.144531 427.351562 105.136719 443.5625 95.132812 453.550781 C 90.332031 458.34375 83.828125 461.039062 77.046875 461.039062 Z M 77.046875 461.039062 " style=" stroke:none;fill-rule:nonzero;fill:rgb(100%,65.490196%,20%);fill-opacity:1;" />
</g>
</svg>