<?xml version="1.0"?>
<svg xmlns="http://www.w3.org/2000/svg" xmlns:xlink="http://www.w3.org/1999/xlink" version="1.1" id="Capa_1" x="0px" y="0px" viewBox="0 0 512 512" style="enable-background:new 0 0 512 512;" xml:space="preserve" width="512px" height="512px" class=""><g><g>
	<path style="fill:#00DDFF" d="M483.087,505.917l-50.315-51c-5.818-5.897-5.754-15.395,0.143-21.213   c5.898-5.818,15.395-5.754,21.213,0.144l50.315,51c5.818,5.897,5.754,15.395-0.143,21.213   C498.402,511.878,488.904,511.815,483.087,505.917z" data-original="#46D989" class="" data-old_color="#00CEFF"/>
	<path style="fill:#00DDFF" d="M435.322,77.468c-5.818-5.897-5.754-15.395,0.143-21.213l51-50.315   c5.897-5.818,15.395-5.754,21.213,0.144c5.818,5.897,5.754,15.395-0.143,21.213l-51,50.315   C450.637,83.429,441.14,83.366,435.322,77.468z" data-original="#46D989" class="" data-old_color="#00CEFF"/>
</g><path style="fill:#2EDDFD;" d="M440.552,139.833c-31.268-0.212-71.008-16.468-114.924-47.011  c-34.223-23.802-58.853-47.95-59.093-48.187c-5.839-5.759-15.224-5.759-21.066-0.004c-0.244,0.241-24.874,24.389-59.097,48.191  c-43.916,30.543-83.656,46.799-114.924,47.011c-8.283,0.056-14.953,6.816-14.898,15.1l0.036,5.929  c0.513,90.637,1.371,242.336,194.725,305.979c1.522,0.501,3.106,0.752,4.689,0.752c1.583,0,3.167-0.25,4.689-0.752  C454.043,403.199,454.901,251.5,455.414,160.862l0.036-5.929C455.505,146.649,448.835,139.889,440.552,139.833z" data-original="#2EDDFD" class=""/><path style="fill:#29AFE0;" d="M440.552,139.833c-31.268-0.212-71.008-16.468-114.924-47.011  c-34.223-23.802-58.853-47.95-59.093-48.187c-2.92-2.88-6.728-4.32-10.535-4.32v427.277c1.583,0,3.167-0.25,4.689-0.752  c193.354-63.642,194.212-215.341,194.725-305.979l0.036-5.929C455.505,146.649,448.835,139.889,440.552,139.833z" data-original="#29AFE0" class=""/><path style="fill:#FFF16C;" d="M360.71,227.642c-7.382,65.277-32.283,106.836-89.71,135.93c-2.81,1.43-5.73,2.84-8.76,4.22  c-1.98,0.91-4.11,1.36-6.24,1.36s-4.26-0.45-6.24-1.36c-3.03-1.38-5.95-2.79-8.76-4.22c-57.438-29.099-82.33-70.675-89.71-135.93  c-0.74-6.63,2.98-12.97,9.15-15.53c30.586-12.722,59.276-30.194,86.21-49.69c2.82-2.05,6.19-2.99,9.51-2.84  c3.22-0.09,6.46,0.86,9.19,2.84c26.689,19.426,56.092,37.163,86.21,49.69C357.73,214.672,361.45,221.012,360.71,227.642z" data-original="#FFF16C"/><g>
	<path style="fill:#FDB92C;" d="M351.56,212.112c-30.118-12.527-59.521-30.264-86.21-49.69c-2.73-1.98-5.97-2.93-9.19-2.84   c-0.053-0.002-0.107,0.001-0.16-0.001v209.571c2.13,0,4.26-0.45,6.24-1.36c3.03-1.38,5.95-2.79,8.76-4.22   c57.427-29.094,82.328-70.653,89.71-135.93C361.45,221.012,357.73,214.672,351.56,212.112z" data-original="#FDB92C"/>
	<path style="fill:#FDB92C;" d="M271,166.482v197.09c-2.81,1.43-5.73,2.84-8.76,4.22c-1.98,0.91-4.11,1.36-6.24,1.36   s-4.26-0.45-6.24-1.36c-3.03-1.38-5.95-2.79-8.76-4.22v-197.09c1.97-1.41,3.84-2.75,5.65-4.06c2.82-2.05,6.19-2.99,9.51-2.84   c3.22-0.09,6.46,0.86,9.19,2.84C267.15,163.732,269.02,165.072,271,166.482z" data-original="#FDB92C"/>
</g><g>
	<path style="fill:#00D6FF" d="M7.7,506.061c-5.896-5.818-5.961-15.315-0.143-21.213l50.315-51   c5.816-5.897,15.314-5.962,21.213-0.144c5.896,5.818,5.961,15.315,0.143,21.213l-50.315,51   C23.095,511.815,13.597,511.878,7.7,506.061z" data-original="#52F785" class="active-path" data-old_color="#00C6FF"/>
	<path style="fill:#00D6FF" d="M55.465,77.611l-51-50.315C-1.432,21.478-1.496,11.98,4.322,6.083   c5.816-5.897,15.314-5.962,21.213-0.144l51,50.315c5.896,5.818,5.961,15.315,0.143,21.213   C70.859,83.365,61.362,83.429,55.465,77.611z" data-original="#52F785" class="active-path" data-old_color="#00C6FF"/>
</g><path style="fill:#E4661D;" d="M265.35,162.422c-2.73-1.98-5.97-2.93-9.19-2.84c-0.053-0.002-0.107,0.001-0.16-0.001v209.571  c2.13,0,4.26-0.45,6.24-1.36c3.03-1.38,5.95-2.79,8.76-4.22v-197.09C269.02,165.072,267.15,163.732,265.35,162.422z" data-original="#E4661D"/></g> </svg>
