<?xml version="1.0" encoding="iso-8859-1"?>
<!-- Generator: Adobe Illustrator 19.0.0, SVG Export Plug-In . SVG Version: 6.00 Build 0)  -->
<svg version="1.1" id="Capa_1" xmlns="http://www.w3.org/2000/svg" xmlns:xlink="http://www.w3.org/1999/xlink" x="0px" y="0px"
	 viewBox="0 0 480 480" style="enable-background:new 0 0 480 480;" xml:space="preserve">
<g>
	<path style="fill:#FFD884;" d="M192.284,104c-4.418,0-8-3.582-8-8V8c0-4.418,3.582-8,8-8s8,3.582,8,8v88
		C200.284,100.418,196.702,104,192.284,104z"/>
	<path style="fill:#FFD884;" d="M288.284,104c-4.418,0-8-3.582-8-8V8c0-4.418,3.582-8,8-8s8,3.582,8,8v88
		C296.284,100.418,292.702,104,288.284,104z"/>
</g>
<path style="fill:#7D8F9F;" d="M319.716,480H152.284c-22.091,0-40-17.909-40-40s17.909-40,40-40h64c4.418,0,8,3.582,8,8
	s-3.582,8-8,8h-64c-6.361,0.019-12.458,2.546-16.968,7.032c-9.369,9.372-9.369,24.564,0,33.936
	c4.51,4.486,10.607,7.013,16.968,7.032h167.432c17.673,0,32-14.327,32-32s-14.327-32-32-32h-38.464
	c-27.042-0.004-48.964-21.926-48.968-48.968V288c0.006-4.418,3.593-7.995,8.011-7.989c4.41,0.006,7.983,3.579,7.989,7.989v63.032
	c0,18.208,14.76,32.968,32.968,32.968h38.464c26.51,0,48,21.49,48,48S346.226,480,319.716,480L319.716,480z"/>
<path style="fill:#D1E3EE;" d="M301.74,265.752c-35.601,29.666-87.311,29.666-122.912,0c-21.889-18.24-34.544-45.26-34.544-73.752
	V96h192v96C336.284,220.492,323.629,247.512,301.74,265.752z"/>
<g>
	<path style="fill:#A9BFD1;" d="M252.284,184h-24l-12,20l12,20h24l12-20L252.284,184z"/>
	<path style="fill:#A9BFD1;" d="M176.284,120c-4.418,0-8,3.582-8,8s3.582,8,8,8h160v-16H176.284z"/>
</g>
<g>
</g>
<g>
</g>
<g>
</g>
<g>
</g>
<g>
</g>
<g>
</g>
<g>
</g>
<g>
</g>
<g>
</g>
<g>
</g>
<g>
</g>
<g>
</g>
<g>
</g>
<g>
</g>
<g>
</g>
</svg>
