<?xml version="1.0" encoding="iso-8859-1"?>
<!-- Generator: Adobe Illustrator 21.0.0, SVG Export Plug-In . SVG Version: 6.00 Build 0)  -->
<svg version="1.1" id="Capa_1" xmlns="http://www.w3.org/2000/svg" xmlns:xlink="http://www.w3.org/1999/xlink" x="0px" y="0px"
	 viewBox="0 0 512 512" style="enable-background:new 0 0 512 512;" xml:space="preserve">
<polygon style="fill:#FD982C;" points="512,375.399 512,93.332 256,1.127 0,93.332 0,416.413 256,508.618 402.667,455.792 "/>
<polygon style="fill:#FA502E;" points="512,379.709 512,93.332 256,1.127 256,508.618 403,455.672 "/>
<polygon style="fill:#FDDA50;" points="256,1.127 0,93.332 256,191.873 512,93.332 "/>
<g>
	<polygon style="fill:#FABE3D;" points="256,1.127 256,191.873 512,93.332 	"/>
	<polygon style="fill:#FABE3D;" points="366.553,149.319 112.738,52.726 156.275,37.044 408.748,133.077 	"/>
</g>
<polygon style="fill:#FD982C;" points="408.748,133.077 256,74.977 256,107.247 366.553,149.319 "/>
<path style="fill:#0050C3;" d="M376.165,239.203c-74.9,0-135.835,60.935-135.835,135.835c0,74.899,60.935,135.835,135.835,135.835
	S512,449.937,512,375.038C512,300.138,451.065,239.203,376.165,239.203z"/>
<path style="fill:#0040A0;" d="M376.165,239.203v271.67c74.9,0,135.835-60.935,135.835-135.835S451.065,239.203,376.165,239.203z"/>
<polygon style="fill:#FDDA50;" points="413.493,359.639 383.493,359.639 383.493,326.963 368.696,326.963 368.696,359.639 
	338.696,359.639 338.696,296.963 413.493,296.963 "/>
<polygon style="fill:#FABE3D;" points="413.356,359.639 413.356,296.962 376.153,296.962 376.166,326.965 383.356,326.962 
	383.356,359.639 "/>
<path style="fill:#FD982C;" d="M435.684,453.115H316.638V344.641h119.046V453.115z"/>
<polygon style="fill:#FA502E;" points="435.688,344.639 376.153,344.639 376.166,453.113 435.688,453.113 "/>
<path style="fill:#FDDA50;" d="M376.166,417.876c7.846,0,15.363-6.899,15-15c-0.364-8.127-6.591-15-15-15
	c-7.846,0-15.363,6.899-15,15C361.53,411.003,367.757,417.876,376.166,417.876L376.166,417.876z"/>
<path style="fill:#FABE3D;" d="M391.166,402.876c-0.364-8.127-6.591-15-15-15c-0.003,0-0.005,0-0.008,0l0.004,29.999
	c0.001,0,0.003,0,0.004,0C384.012,417.876,391.529,410.977,391.166,402.876z"/>
<g>
</g>
<g>
</g>
<g>
</g>
<g>
</g>
<g>
</g>
<g>
</g>
<g>
</g>
<g>
</g>
<g>
</g>
<g>
</g>
<g>
</g>
<g>
</g>
<g>
</g>
<g>
</g>
<g>
</g>
</svg>
