<?xml version="1.0" encoding="iso-8859-1"?>
<!-- Generator: Adobe Illustrator 21.0.0, SVG Export Plug-In . SVG Version: 6.00 Build 0)  -->
<svg version="1.1" id="Capa_1" xmlns="http://www.w3.org/2000/svg" xmlns:xlink="http://www.w3.org/1999/xlink" x="0px" y="0px"
	 viewBox="0 0 512 512" style="enable-background:new 0 0 512 512;" xml:space="preserve">
<polygon style="fill:#FD982C;" points="446.149,451.689 446.149,210.406 255.989,144.494 65.829,210.406 65.829,451.689 
	255.989,512 "/>
<polygon style="fill:#FA502E;" points="446.149,451.689 446.149,210.406 255.989,144.494 255.989,512 "/>
<polygon style="fill:#FDDA50;" points="446.149,210.406 255.989,144.494 65.829,210.406 255.989,277.316 "/>
<g>
	<polygon style="fill:#FABE3D;" points="446.149,210.406 255.989,144.494 255.989,277.316 	"/>
	<polygon style="fill:#FABE3D;" points="65.829,210.406 0,288.301 193.739,358.706 255.989,277.316 	"/>
	<polygon style="fill:#FABE3D;" points="446.149,210.406 512,288.301 318.261,358.706 255.989,277.316 	"/>
</g>
<polygon style="fill:#FD982C;" points="446.149,210.406 512,288.301 318.261,358.706 255.989,277.316 "/>
<path style="fill:#9ED0FF;" d="M255.988,0C164.609,0,84.187,111.234,84.187,111.234s80.422,111.235,171.801,111.235
	s171.801-111.235,171.801-111.235S347.366,0,255.988,0z"/>
<path style="fill:#73BCFF;" d="M255.988,0v222.469c91.379,0,171.801-111.235,171.801-111.235S347.366,0,255.988,0z"/>
<circle style="fill:#0095FF;" cx="256.98" cy="126.17" r="96.33"/>
<path style="fill:#006EFF;" d="M256.977,29.842c-0.331,0-0.659,0.009-0.989,0.013v192.648c0.33,0.003,0.659,0.006,0.989,0.006
	c53.203,0,96.333-43.13,96.333-96.333S310.18,29.842,256.977,29.842z"/>
<path style="fill:#0050C3;" d="M255.988,0C164.609,0,84.187,111.234,84.187,111.234s80.422-53.768,171.801-53.768
	s171.801,53.768,171.801,53.768S347.366,0,255.988,0z"/>
<path style="fill:#0040A0;" d="M255.988,0v57.467c91.379,0,171.801,53.768,171.801,53.768S347.366,0,255.988,0z"/>
<path style="fill:#0050C3;" d="M255.988,100.015c-14.337,0-26,11.664-26,26s11.663,26,26,26s26-11.664,26-26
	S270.324,100.015,255.988,100.015z"/>
<path style="fill:#0040A0;" d="M255.988,100.015v52.001c14.337,0,26-11.664,26-26S270.324,100.015,255.988,100.015z"/>
<g>
</g>
<g>
</g>
<g>
</g>
<g>
</g>
<g>
</g>
<g>
</g>
<g>
</g>
<g>
</g>
<g>
</g>
<g>
</g>
<g>
</g>
<g>
</g>
<g>
</g>
<g>
</g>
<g>
</g>
</svg>
