<?xml version="1.0" encoding="iso-8859-1"?>
<!-- Generator: Adobe Illustrator 21.0.0, SVG Export Plug-In . SVG Version: 6.00 Build 0)  -->
<svg version="1.1" id="Capa_1" xmlns="http://www.w3.org/2000/svg" xmlns:xlink="http://www.w3.org/1999/xlink" x="0px" y="0px"
	 viewBox="0 0 512 512" style="enable-background:new 0 0 512 512;" xml:space="preserve">
<polygon style="fill:#FD982C;" points="512,375.863 512,93.332 256,1.127 0,93.332 0,416.413 256,508.618 402.667,455.792 "/>
<polygon style="fill:#FA502E;" points="512,370.395 512,93.332 256,1.127 256,508.618 403,455.672 "/>
<polygon style="fill:#FDDA50;" points="256,1.127 0,93.332 256,191.873 512,93.332 "/>
<g>
	<polygon style="fill:#FABE3D;" points="256,1.127 256,191.873 512,93.332 	"/>
	<polygon style="fill:#FABE3D;" points="366.553,149.319 112.738,52.726 156.275,37.044 408.748,133.077 	"/>
</g>
<polygon style="fill:#FD982C;" points="408.748,133.077 256,74.977 256,107.247 366.553,149.319 "/>
<path style="fill:#0050C3;" d="M376.165,239.203c-74.9,0-135.835,60.935-135.835,135.835c0,74.899,60.935,135.835,135.835,135.835
	S512,449.937,512,375.038C512,300.138,451.065,239.203,376.165,239.203z"/>
<path style="fill:#0040A0;" d="M376.165,239.203v271.67c74.9,0,135.835-60.935,135.835-135.835S451.065,239.203,376.165,239.203z"/>
<polygon style="fill:#FDDA50;" points="453.154,355.01 403.075,342.989 376.165,299.076 349.256,342.989 299.177,355.01 
	332.624,394.174 328.584,445.516 376.165,425.808 423.747,445.516 419.707,394.174 "/>
<polygon style="fill:#FABE3D;" points="419.707,394.174 453.154,355.01 403.075,342.989 376.166,299.076 376.166,425.808 
	423.747,445.516 "/>
<g>
</g>
<g>
</g>
<g>
</g>
<g>
</g>
<g>
</g>
<g>
</g>
<g>
</g>
<g>
</g>
<g>
</g>
<g>
</g>
<g>
</g>
<g>
</g>
<g>
</g>
<g>
</g>
<g>
</g>
</svg>
