<?xml version="1.0" encoding="iso-8859-1"?>
<!-- Generator: Adobe Illustrator 19.0.0, SVG Export Plug-In . SVG Version: 6.00 Build 0)  -->
<svg version="1.1" id="Capa_1" xmlns="http://www.w3.org/2000/svg" xmlns:xlink="http://www.w3.org/1999/xlink" x="0px" y="0px"
	 viewBox="0 0 514.133 514.133" style="enable-background:new 0 0 514.133 514.133;" xml:space="preserve">
<path style="fill:#40596B;" d="M65.066,226.133h426.667c11.733,0,21.333,9.6,21.333,21.333V492.8c0,11.733-9.6,21.333-21.333,21.333
	H65.066c-11.733,0-21.333-9.6-21.333-21.333V247.467C43.732,234.667,53.332,226.133,65.066,226.133z"/>
<rect x="43.732" y="316.8" style="fill:#ACB3BA;" width="469.33" height="53.33"/>
<g>
	<rect x="136.529" y="410.67" style="fill:#334A5E;" width="71.47" height="22.4"/>
	<rect x="349.869" y="410.67" style="fill:#334A5E;" width="71.47" height="22.4"/>
</g>
<path style="fill:#F2F2F2;" d="M449.066,288H22.399c-11.733,0-21.333-9.6-21.333-21.333V21.333C1.066,9.6,10.666,0,22.399,0h426.667
	c11.733,0,21.333,9.6,21.333,21.333v245.333C470.399,279.467,460.799,288,449.066,288z"/>
<path style="fill:#CDD6E0;" d="M403.199,55.467c-12.8-9.6-28.8-16-44.8-16s-32,5.333-44.8,16
	c-18.133,13.867-27.733,35.2-27.733,57.6s9.6,43.733,27.733,57.6c12.8,10.667,28.8,16,44.8,16s32-5.333,44.8-16
	c18.133-13.867,27.733-35.2,27.733-57.6S421.332,69.333,403.199,55.467z M423.466,108.8h-25.6c0-14.933-3.2-28.8-7.467-38.4
	c4.267-2.133,7.467-4.267,10.667-6.4C413.866,74.667,422.399,90.667,423.466,108.8z M361.599,48C361.599,48,362.666,48,361.599,48
	c7.467,2.133,12.8,8.533,18.133,17.067c-5.333,2.133-11.733,3.2-18.133,3.2V48z M375.466,50.133c6.4,2.133,12.8,4.267,18.133,8.533
	l0,0c-2.133,2.133-5.333,3.2-7.467,4.267C382.932,57.6,379.732,53.333,375.466,50.133z M322.132,58.667
	c5.333-4.267,11.733-6.4,19.2-8.533c-4.267,3.2-7.467,7.467-10.667,12.8C327.466,61.867,324.266,59.733,322.132,58.667
	L322.132,58.667z M354.132,48L354.132,48v21.333c-6.4,0-11.733-1.067-18.133-3.2C341.332,56.533,347.732,50.133,354.132,48z
	 M354.132,76.8v32h-27.733c0-13.867,3.2-25.6,6.4-36.267C340.266,74.667,346.666,76.8,354.132,76.8z M354.132,116.267v32
	c-7.467,0-13.867,2.133-21.333,4.267c-4.267-10.667-6.4-22.4-6.4-36.267H354.132L354.132,116.267z M354.132,156.8v21.333l0,0
	c-6.4-2.133-12.8-8.533-18.133-17.067C342.399,157.867,347.732,156.8,354.132,156.8z M340.266,174.933
	c-6.4-2.133-12.8-4.267-19.2-8.533l0,0c2.133-2.133,5.333-3.2,8.533-4.267C332.799,167.467,337.066,171.733,340.266,174.933z
	 M394.666,166.4c-5.333,4.267-11.733,6.4-18.133,8.533c4.267-3.2,7.467-7.467,10.667-12.8
	C389.332,163.2,391.466,165.333,394.666,166.4L394.666,166.4z M361.599,177.067L361.599,177.067v-21.333
	c6.4,0,11.733,1.067,18.133,3.2C375.466,169.6,369.066,176,361.599,177.067z M361.599,148.267v-32h27.733
	c0,13.867-3.2,25.6-6.4,36.267C376.532,150.4,369.066,148.267,361.599,148.267z M361.599,108.8v-32
	c7.467,0,13.867-2.133,21.333-4.267c4.267,10.667,6.4,22.4,6.4,36.267H361.599z M315.732,62.933c3.2,2.133,7.467,4.267,10.667,6.4
	c-4.267,10.667-7.467,23.467-7.467,38.4h-25.6C294.399,90.667,301.866,74.667,315.732,62.933z M293.332,116.267h25.6
	c0,14.933,3.2,28.8,7.467,38.4c-4.267,2.133-7.467,4.267-10.667,6.4C301.866,150.4,294.399,134.4,293.332,116.267z M401.066,162.133
	c-3.2-2.133-7.467-4.267-10.667-6.4c4.267-10.667,7.467-23.467,7.467-39.467h25.6C422.399,134.4,413.866,150.4,401.066,162.133z"/>
<circle style="fill:#FF7058;" cx="72.529" cy="72.53" r="32"/>
<circle style="fill:#84DBFF;" cx="114.129" cy="72.53" r="32"/>
<rect x="40.532" y="221.87" style="fill:#FFD15C;" width="71.47" height="22.4"/>
<rect x="40.532" y="149.33" style="fill:#ACB3BA;" width="173.87" height="22.4"/>
<rect x="147.199" y="221.87" style="fill:#CDD6E0;" width="71.47" height="22.4"/>
<rect x="253.869" y="221.87" style="fill:#FFD15C;" width="71.47" height="22.4"/>
<rect x="360.529" y="221.87" style="fill:#CDD6E0;" width="71.47" height="22.4"/>
<g>
</g>
<g>
</g>
<g>
</g>
<g>
</g>
<g>
</g>
<g>
</g>
<g>
</g>
<g>
</g>
<g>
</g>
<g>
</g>
<g>
</g>
<g>
</g>
<g>
</g>
<g>
</g>
<g>
</g>
</svg>
