<?xml version="1.0" encoding="iso-8859-1"?>
<!-- Generator: Adobe Illustrator 19.0.0, SVG Export Plug-In . SVG Version: 6.00 Build 0)  -->
<svg version="1.1" id="Layer_1" xmlns="http://www.w3.org/2000/svg" xmlns:xlink="http://www.w3.org/1999/xlink" x="0px" y="0px"
	 viewBox="0 0 508.1 508.1" style="enable-background:new 0 0 508.1 508.1;" xml:space="preserve">
<path style="fill:#54C0EB;" d="M455.9,180.8H21.3c-11.7,0-21.2,9.5-21.2,21.2v284.9c0,11.7,9.5,21.2,21.2,21.2h434.6
	c11.7,0,21.2-9.5,21.2-21.2v-285C477,190.2,467.6,180.8,455.9,180.8z"/>
<path style="fill:#F2F2F2;" d="M486.9,0H52.3C40.5,0,31.1,9.5,31.1,21.2v159.6h424.8c11.6,0,21.2,9.5,21.2,21.2v125.3h9.8
	c4.1,0,7.9-1.2,11.2-3.2c5.9-3.8,9.9-10.5,9.9-18V21.2C508.1,9.5,498.6,0,486.9,0z"/>
<rect x="31.1" y="67.6" style="fill:#40596B;" width="476.9" height="58.8"/>
<circle style="fill:#FFFFFF;" cx="346.8" cy="268.5" r="42.6"/>
<circle style="fill:#FF7058;" cx="389.3" cy="268.5" r="42.6"/>
<g>
	<rect x="34" y="254.7" style="fill:#84DBFF;" width="188.6" height="27.5"/>
	<rect x="34" y="344.4" style="fill:#84DBFF;" width="263.2" height="27.5"/>
</g>
<g>
	<path style="fill:#F2F2F2;" d="M111.5,457.2H35.3c-0.7,0-1.3-0.6-1.3-1.3V431c0-0.7,0.6-1.3,1.3-1.3h76.3c0.7,0,1.3,0.6,1.3,1.3
		v24.9C112.8,456.6,112.2,457.2,111.5,457.2z"/>
	<path style="fill:#F2F2F2;" d="M205.4,457.2h-51.3c-7.6,0-13.7-6.2-13.7-13.7l0,0c0-7.6,6.2-13.7,13.7-13.7h51.4
		c7.6,0,13.7,6.2,13.7,13.7l0,0C219.2,451,213,457.2,205.4,457.2z"/>
	<path style="fill:#F2F2F2;" d="M311.8,457.2h-51.4c-7.6,0-13.7-6.2-13.7-13.7l0,0c0-7.6,6.2-13.7,13.7-13.7h51.4
		c7.6,0,13.7,6.2,13.7,13.7l0,0C325.5,451,319.4,457.2,311.8,457.2z"/>
	<path style="fill:#F2F2F2;" d="M430.6,457.2h-76.3c-0.7,0-1.3-0.6-1.3-1.3V431c0-0.7,0.6-1.3,1.3-1.3h76.3c0.7,0,1.3,0.6,1.3,1.3
		v24.9C431.9,456.6,431.3,457.2,430.6,457.2z"/>
</g>
<g>
</g>
<g>
</g>
<g>
</g>
<g>
</g>
<g>
</g>
<g>
</g>
<g>
</g>
<g>
</g>
<g>
</g>
<g>
</g>
<g>
</g>
<g>
</g>
<g>
</g>
<g>
</g>
<g>
</g>
</svg>
