<?xml version="1.0" encoding="iso-8859-1"?>
<!-- Generator: Adobe Illustrator 19.0.0, SVG Export Plug-In . SVG Version: 6.00 Build 0)  -->
<svg version="1.1" id="Capa_1" xmlns="http://www.w3.org/2000/svg" xmlns:xlink="http://www.w3.org/1999/xlink" x="0px" y="0px"
	 viewBox="0 0 512 512" style="enable-background:new 0 0 512 512;" xml:space="preserve">
<g>
	<path style="fill:#334A5E;" d="M183.467,93.733V43.597h144v50.137h42.667V43.597C370.133,19.619,350.933,0,327.467,0h-144
		C160,0,140.8,19.619,140.8,43.597v50.137h42.667L183.467,93.733L183.467,93.733z"/>
	<path style="fill:#334A5E;" d="M472.533,512H39.467c-11.733,0-21.333-9.6-21.333-21.333V299.733h476.8v190.933
		C493.867,502.4,484.267,512,472.533,512z"/>
</g>
<path style="fill:#40596B;" d="M512,301.467H0V113.245c0-11.831,9.6-21.511,21.333-21.511h469.333
	c11.733,0,21.333,9.68,21.333,21.511L512,301.467L512,301.467z"/>
<rect x="59.733" y="91.73" style="fill:#4CDBC4;" width="60.8" height="234.67"/>
<path style="fill:#FFFFFF;" d="M120.533,317.867h-60.8c-4.267,0-8.533,3.2-8.533,8.533l0,0c0,4.267,3.2,8.533,8.533,8.533h60.8
	c4.267,0,8.533-3.2,8.533-8.533l0,0C129.067,322.133,124.8,317.867,120.533,317.867z"/>
<path style="fill:#F8B64C;" d="M120.533,333.867h-60.8v19.2c0,11.733,9.6,21.333,21.333,21.333H99.2
	c11.733,0,21.333-9.6,21.333-21.333C120.533,353.067,120.533,333.867,120.533,333.867z"/>
<rect x="391.47" y="91.73" style="fill:#4CDBC4;" width="60.8" height="234.67"/>
<path style="fill:#FFFFFF;" d="M452.267,317.867h-60.8c-4.267,0-8.533,3.2-8.533,8.533l0,0c0,4.267,3.2,8.533,8.533,8.533h60.8
	c4.267,0,8.533-3.2,8.533-8.533l0,0C459.733,322.133,456.533,317.867,452.267,317.867z"/>
<path style="fill:#F8B64C;" d="M452.267,333.867h-60.8v19.2c0,11.733,9.6,21.333,21.333,21.333h18.133
	c11.733,0,21.333-9.6,21.333-21.333L452.267,333.867L452.267,333.867z"/>
<g>
</g>
<g>
</g>
<g>
</g>
<g>
</g>
<g>
</g>
<g>
</g>
<g>
</g>
<g>
</g>
<g>
</g>
<g>
</g>
<g>
</g>
<g>
</g>
<g>
</g>
<g>
</g>
<g>
</g>
</svg>
