<?xml version="1.0" encoding="iso-8859-1"?>
<!-- Generator: Adobe Illustrator 19.0.0, SVG Export Plug-In . SVG Version: 6.00 Build 0)  -->
<svg version="1.1" id="Capa_1" xmlns="http://www.w3.org/2000/svg" xmlns:xlink="http://www.w3.org/1999/xlink" x="0px" y="0px"
	 viewBox="0 0 512.297 512.297" style="enable-background:new 0 0 512.297 512.297;" xml:space="preserve">
<path style="fill:#FF7058;" d="M183.467,151.482h55.467c1.067-33.067,27.733-59.733,60.8-59.733s59.733,26.667,60.8,59.733H416
	c0-3.2,0-6.4,0-9.6c7.467-5.333,16-10.667,24.533-16c-3.2-11.733-6.4-22.4-10.667-33.067c-9.6,0-19.2,1.067-28.8,1.067
	c-4.267-6.4-8.533-11.733-12.8-18.133c3.2-8.533,6.4-18.133,9.6-27.733c-8.533-7.467-18.133-14.933-28.8-20.267
	c-7.467,6.4-14.933,11.733-22.4,18.133c-6.4-3.2-13.867-5.333-21.333-6.4c-2.133-9.6-5.333-19.2-7.467-28.8
	c-11.733-1.067-23.467-1.067-35.2,0c-2.133,9.6-5.333,19.2-7.467,27.733c-7.467,1.067-13.867,4.267-21.333,6.4
	c-7.467-6.4-14.933-11.733-22.4-18.133c-9.6,6.4-19.2,12.8-28.8,20.267c3.2,9.6,6.4,18.133,9.6,27.733
	c-5.333,5.333-9.6,11.733-12.8,18.133c-9.6,0-19.2-1.067-28.8-1.067c-4.267,10.667-8.533,22.4-10.667,33.067
	c8.533,5.333,16,10.667,24.533,16C184.533,145.082,183.467,148.282,183.467,151.482z"/>
<path style="fill:#FFD15C;" d="M246.4,151.482c0-13.867,5.333-26.667,16-37.333c21.333-21.333,55.467-21.333,76.8,0
	c10.667,10.667,14.933,23.467,16,37.333h30.933c0-21.333-8.533-42.667-24.533-58.667c-33.067-33.067-86.4-33.067-120.533,0
	c-16,16-24.533,37.333-24.533,58.667H246.4z"/>
<path style="fill:#CDD6E0;" d="M144,368.015c6.4,9.6,17.067,16,28.8,16h282.667c10.667,0,19.2-7.467,21.333-17.067L512,176.015
	c2.133-12.8-7.467-25.6-21.333-25.6h-348.8L121.6,44.815c-2.133-9.6-9.6-16-19.2-16H20.267C8.533,29.882,0,38.415,0,49.082
	s8.533,20.267,20.267,20.267h65.067L105.6,176.015l2.133,12.8L134.4,327.482c0,0,0,0-1.067,0
	c-33.067,7.467-58.667,37.333-58.667,73.6c0,40.533,33.067,73.6,73.6,73.6h307.2c10.667,0,20.267-8.533,20.267-20.267
	c0-10.667-8.533-20.267-20.267-20.267H147.2c-18.133,0-33.067-14.933-33.067-33.067C114.133,384.015,126.933,369.082,144,368.015z
	 M375.467,209.082c0-8.533,7.467-16,18.133-16c9.6,0,18.133,7.467,18.133,16v117.333c0,8.533-7.467,16-18.133,16
	c-9.6,0-18.133-7.467-18.133-16V209.082z M291.2,209.082c0-8.533,7.467-16,18.133-16s18.133,7.467,18.133,16v117.333
	c0,8.533-7.467,16-18.133,16s-18.133-7.467-18.133-16V209.082z M206.933,209.082c0-8.533,7.467-16,18.133-16
	c10.667,0,18.133,7.467,18.133,16v117.333c0,8.533-7.467,16-18.133,16c-10.667,0-18.133-7.467-18.133-16V209.082z"/>
<g>
	<path style="fill:#40596B;" d="M212.267,502.415c-26.667,0-48-21.333-48-48s21.333-48,48-48s48,21.333,48,48
		C259.2,480.015,237.867,502.415,212.267,502.415z"/>
	<path style="fill:#40596B;" d="M388.267,502.415c-26.667,0-48-21.333-48-48s21.333-48,48-48s48,21.333,48,48
		C436.267,480.015,414.933,502.415,388.267,502.415z"/>
</g>
<g>
	<circle style="fill:#FFFFFF;" cx="388.27" cy="454.42" r="20.267"/>
	<circle style="fill:#FFFFFF;" cx="212.27" cy="454.42" r="20.267"/>
</g>
<path style="fill:#CDD6E0;" d="M107.733,189.882l25.6,138.667c0,0,0,0,1.067,0L107.733,189.882z"/>
<g>
</g>
<g>
</g>
<g>
</g>
<g>
</g>
<g>
</g>
<g>
</g>
<g>
</g>
<g>
</g>
<g>
</g>
<g>
</g>
<g>
</g>
<g>
</g>
<g>
</g>
<g>
</g>
<g>
</g>
</svg>
