<?xml version="1.0" encoding="iso-8859-1"?>
<!-- Generator: Adobe Illustrator 19.0.0, SVG Export Plug-In . SVG Version: 6.00 Build 0)  -->
<svg version="1.1" id="Capa_1" xmlns="http://www.w3.org/2000/svg" xmlns:xlink="http://www.w3.org/1999/xlink" x="0px" y="0px"
	 viewBox="0 0 512 512" style="enable-background:new 0 0 512 512;" xml:space="preserve">
<path style="fill:#4CDBC4;" d="M510.935,200.152v219.276c0,15.967-12.773,28.74-28.74,28.74H28.74
	c-15.967,0-28.74-12.773-28.74-28.74V200.152c0-15.967,12.773-28.74,28.74-28.74h454.52
	C498.162,171.412,510.935,184.186,510.935,200.152z"/>
<path style="fill:#3DC9AE;" d="M482.195,447.105H28.74c-15.967,0-28.74-12.773-28.74-28.74v10.645
	c0,15.967,12.773,28.74,28.74,28.74h454.52c15.967,0,28.74-12.773,28.74-28.74l-1.065-10.72
	C509.87,434.256,498.162,447.105,482.195,447.105z"/>
<path style="fill:#F2F2F2;" d="M39.385,375.786V242.731c18.095,0,31.933-13.838,31.933-31.933h367.235
	c0,18.095,13.838,31.933,31.933,31.933v131.992c-18.095,0-31.933,13.838-31.933,31.933H71.318
	C71.318,389.625,57.48,375.786,39.385,375.786z"/>
<g>
	<circle style="fill:#4CDBC4;" cx="139.439" cy="309.788" r="15.967"/>
	<circle style="fill:#4CDBC4;" cx="371.496" cy="309.788" r="15.967"/>
	<path style="fill:#4CDBC4;" d="M317.206,309.791c0,43.642-27.675,77.705-61.738,77.705c-4.258,0-8.515-1.065-12.773-2.129
		c-27.675-7.451-48.965-39.385-48.965-76.64c0-1.065,0-3.193,0-4.258c2.129-41.513,28.74-73.447,61.738-73.447
		C289.53,231.022,317.206,266.149,317.206,309.791z"/>
</g>
<path style="fill:#FFFFFF;" d="M251.209,340.66v-27.675c-8.515-2.129-14.902-6.387-19.16-10.645
	c-4.258-5.322-6.387-10.645-6.387-18.095s2.129-12.773,6.387-18.095c4.258-5.322,10.645-7.451,18.095-8.515v-6.387h9.58v6.387
	c7.451,1.065,12.773,3.193,17.032,7.451c4.258,4.258,6.387,9.58,7.451,15.967l-17.031,2.129c-1.065-5.322-3.193-8.515-7.451-10.645
	v25.547c10.645,3.193,18.095,6.387,21.289,10.645c4.258,4.258,5.322,10.645,5.322,17.031c0,7.451-2.129,14.902-7.451,20.225
	c-5.322,5.322-11.709,8.515-20.225,9.58v12.773h-9.58v-11.709c-7.451-1.065-13.838-4.258-18.095-8.515
	c-4.258-4.258-7.451-11.709-9.58-20.225l17.032-2.129c1.065,3.193,2.129,6.387,4.258,9.58
	C245.888,337.466,248.016,339.596,251.209,340.66z M251.209,271.471c-2.129,1.065-4.258,2.129-6.387,4.258
	c-2.129,2.129-2.129,4.258-2.129,7.451c0,2.129,1.065,4.258,2.129,6.387c1.065,2.129,3.193,3.193,6.387,5.322V271.471z
	 M260.79,341.724c3.193-1.065,6.387-2.129,8.515-4.258c2.129-2.129,3.193-5.322,3.193-8.515c0-3.193-1.065-5.322-2.129-7.451
	c-2.129-2.129-4.258-4.258-8.515-5.322v25.547H260.79z"/>
<path style="fill:#4CDBC4;" d="M510.935,170.348v219.276c0,15.967-12.773,28.74-28.74,28.74H28.74
	c-15.967,0-28.74-12.773-28.74-28.74V170.348c0-15.967,12.773-28.74,28.74-28.74h454.52
	C498.162,142.672,510.935,155.446,510.935,170.348z"/>
<path style="fill:#3DC9AE;" d="M482.195,418.365H28.74c-15.967,0-28.74-12.773-28.74-28.74v10.645
	c0,15.967,12.773,28.74,28.74,28.74h454.52c15.967,0,28.74-12.773,28.74-28.74l-1.128-10.795
	C509.808,405.442,498.162,418.365,482.195,418.365z"/>
<path style="fill:#F2F2F2;" d="M39.385,347.046V213.991c18.095,0,31.933-13.838,31.933-31.933h367.235
	c0,18.095,13.838,31.933,31.933,31.933v131.992c-18.095,0-31.933,13.838-31.933,31.933H71.318
	C71.318,360.884,57.48,347.046,39.385,347.046z"/>
<g>
	<circle style="fill:#4CDBC4;" cx="139.439" cy="279.99" r="15.967"/>
	<circle style="fill:#4CDBC4;" cx="371.496" cy="279.99" r="15.967"/>
	<path style="fill:#4CDBC4;" d="M317.206,279.986c0,43.642-27.675,77.705-61.738,77.705c-4.258,0-8.515-1.065-12.773-2.129
		c-27.675-7.451-48.965-39.385-48.965-76.64c0-1.065,0-3.193,0-4.258c2.129-41.513,28.74-73.447,61.738-73.447
		C289.53,202.282,317.206,237.409,317.206,279.986z"/>
</g>
<path style="fill:#FFFFFF;" d="M251.209,310.856V283.18c-8.515-2.129-14.902-6.387-19.16-10.645
	c-4.258-5.322-6.387-10.645-6.387-18.095c0-7.451,2.129-12.773,6.387-18.095c4.258-5.322,10.645-7.451,18.095-8.515v-6.387h9.58
	v6.387c7.451,1.065,12.773,3.193,17.032,7.451c4.258,4.258,6.387,9.58,7.451,15.967l-17.031,2.129
	c-1.065-5.322-3.193-8.515-7.451-10.645v25.547c10.645,3.193,18.095,6.387,21.289,10.645c3.193,4.258,5.322,10.645,5.322,17.031
	c0,7.452-2.129,14.902-7.451,20.225c-4.258,5.322-11.709,8.515-20.225,9.58v12.773h-9.58v-11.709
	c-7.451-1.065-13.838-4.258-18.095-8.515c-4.258-4.258-7.451-11.709-9.58-20.225l17.032-2.129c1.065,3.193,2.129,6.387,4.258,9.58
	C244.823,308.726,248.016,309.791,251.209,310.856z M251.209,242.731c-2.129,1.065-4.258,2.129-6.387,4.258
	c-1.065,2.129-2.129,4.258-2.129,7.451c0,2.129,1.065,4.258,2.129,6.387c1.065,2.129,3.193,3.193,6.387,5.322V242.731z
	 M260.79,311.919c3.193-1.065,6.387-2.129,8.515-4.258c2.129-2.13,3.193-5.322,3.193-8.515c0-3.193-1.065-5.322-2.129-7.452
	c-2.129-2.129-4.258-4.258-8.515-5.322v25.547H260.79z"/>
<path style="fill:#4CDBC4;" d="M510.935,141.608v219.276c0,15.967-12.773,28.74-28.74,28.74H28.74
	c-15.967,0-28.74-12.773-28.74-28.74V141.608c0-15.967,12.773-28.74,28.74-28.74h454.52
	C498.162,112.868,510.935,125.642,510.935,141.608z"/>
<path style="fill:#3DC9AE;" d="M482.195,389.625H28.74c-15.967,0-28.74-12.773-28.74-28.74v10.645
	c0,15.967,12.773,28.74,28.74,28.74h454.52c15.967,0,28.74-12.773,28.74-28.74l-1.065-10.645
	C509.87,376.851,498.162,389.625,482.195,389.625z"/>
<path style="fill:#F2F2F2;" d="M39.385,317.242V185.25c18.095,0,31.933-13.838,31.933-31.933h367.235
	c0,18.095,13.838,31.933,31.933,31.933v131.992c-18.095,0-31.933,13.838-31.933,31.933H71.318
	C71.318,332.144,57.48,317.242,39.385,317.242z"/>
<g>
	<circle style="fill:#4CDBC4;" cx="139.439" cy="251.25" r="15.967"/>
	<circle style="fill:#4CDBC4;" cx="371.496" cy="251.25" r="15.967"/>
	<path style="fill:#4CDBC4;" d="M317.206,251.246c0,43.642-27.675,77.705-61.738,77.705c-4.258,0-8.515-1.065-12.773-2.129
		c-27.675-7.452-48.965-39.385-48.965-76.64c0-1.065,0-3.193,0-4.258c2.129-41.513,28.74-73.447,61.738-73.447
		C289.53,173.542,317.206,207.604,317.206,251.246z"/>
</g>
<path style="fill:#FFFFFF;" d="M251.209,282.116V254.44c-8.515-2.129-14.902-6.387-19.16-10.645
	c-4.258-5.322-6.387-10.645-6.387-18.095s2.129-12.773,6.387-18.095c4.258-5.322,10.645-7.451,18.095-8.515v-6.387h9.58v6.387
	c7.451,1.065,12.773,3.193,17.032,7.451c4.258,4.258,6.387,9.58,7.451,15.967l-17.031,2.129c-1.065-5.322-3.193-8.515-7.451-10.645
	v25.546c10.645,3.193,18.095,6.387,21.289,10.645c3.193,4.258,5.322,10.645,5.322,17.031c0,7.451-2.129,14.902-7.451,20.225
	c-5.322,5.322-11.709,8.515-20.225,9.58v12.773h-9.58v-11.709c-7.451-1.065-13.838-4.258-18.095-8.515
	c-4.258-4.258-7.451-11.709-9.58-20.225l17.032-2.129c1.065,3.193,2.129,6.387,4.258,9.58
	C245.888,278.922,248.016,281.051,251.209,282.116z M251.209,212.926c-2.129,1.065-4.258,2.129-6.387,4.258
	c-2.129,2.129-2.129,4.258-2.129,7.451c0,2.129,1.065,4.258,2.129,6.387c1.065,2.129,3.193,3.193,6.387,5.322L251.209,212.926
	L251.209,212.926z M260.79,283.179c3.193-1.065,6.387-2.129,8.515-4.258c2.129-2.13,3.193-5.322,3.193-8.515
	c0-3.193-1.065-5.322-2.129-7.451c-2.129-2.129-4.258-4.258-8.515-5.322v25.547H260.79z"/>
<path style="fill:#4CDBC4;" d="M510.935,112.868v219.276c0,15.967-12.773,28.74-28.74,28.74H28.74
	c-15.967,0-28.74-12.773-28.74-28.74V112.868c0-15.967,12.773-28.74,28.74-28.74h454.52
	C498.162,84.128,510.935,96.902,510.935,112.868z"/>
<path style="fill:#3DC9AE;" d="M482.195,359.82H28.74C12.773,359.82,0,347.046,0,331.08v10.645c0,15.967,12.773,28.74,28.74,28.74
	h454.52c15.967,0,28.74-12.773,28.74-28.74l-1.189-10.565C509.746,347.125,498.162,359.82,482.195,359.82z"/>
<path style="fill:#F2F2F2;" d="M39.385,288.502V155.446c18.095,0,31.933-13.838,31.933-31.933h367.235
	c0,18.095,13.838,31.933,31.933,31.933v133.056c-18.095,0-31.933,13.838-31.933,31.933H71.318
	C71.318,302.339,57.48,288.502,39.385,288.502z"/>
<g>
	<circle style="fill:#4CDBC4;" cx="139.439" cy="222.51" r="15.967"/>
	<circle style="fill:#4CDBC4;" cx="371.496" cy="222.51" r="15.967"/>
	<path style="fill:#4CDBC4;" d="M317.206,222.506c0,43.642-27.675,77.705-61.738,77.705c-4.258,0-8.515-1.065-12.773-2.129
		c-27.675-7.451-48.965-39.385-48.965-76.64c0-1.065,0-3.193,0-4.258c2.13-41.513,28.74-73.447,61.738-73.447
		C289.53,143.737,317.206,178.864,317.206,222.506z"/>
</g>
<path style="fill:#FFFFFF;" d="M251.209,253.375V225.7c-8.515-2.129-14.902-6.387-19.16-10.645
	c-4.258-5.322-6.387-10.645-6.387-18.095c0-7.45,2.129-12.773,6.387-18.095c4.258-5.322,10.645-7.451,18.095-8.515v-6.387h9.58
	v6.387c7.451,1.065,12.773,3.193,17.032,7.451s6.387,9.58,7.451,15.967l-17.031,2.129c-1.065-5.322-3.193-8.515-7.451-10.645v25.547
	c10.645,3.193,18.095,6.387,21.289,10.645c3.193,4.258,5.322,10.645,5.322,17.031c0,7.451-2.129,14.902-7.451,20.225
	c-5.322,5.322-11.709,8.515-20.225,9.58v12.773h-9.58v-11.709c-7.451-1.065-13.838-4.258-18.095-8.515
	c-4.258-4.258-7.451-11.709-9.58-20.225l17.032-2.129c1.065,3.193,2.129,6.387,4.258,9.58
	C245.888,250.182,248.016,252.311,251.209,253.375z M251.209,184.186c-2.129,1.065-4.258,2.129-6.387,4.258
	c-2.129,2.129-2.129,4.258-2.129,7.451c0,2.129,1.065,4.258,2.129,6.387c1.065,2.129,3.193,3.193,6.387,5.322L251.209,184.186
	L251.209,184.186z M260.79,254.439c3.193-1.065,6.387-2.129,8.515-4.258c2.129-2.129,3.193-5.322,3.193-8.515
	c0-3.193-1.065-5.322-2.129-7.451c-2.129-2.129-4.258-4.258-8.515-5.322v25.547H260.79L260.79,254.439z"/>
<path style="fill:#4CDBC4;" d="M510.935,83.063v219.276c0,15.967-12.773,28.74-28.74,28.74H28.74
	c-15.967,0-28.74-12.773-28.74-28.74V83.063c0-15.967,12.773-28.74,28.74-28.74h454.52
	C498.162,55.388,510.935,68.161,510.935,83.063z"/>
<path style="fill:#3DC9AE;" d="M482.195,331.079H28.74c-15.967,0-28.74-12.773-28.74-28.74v10.645
	c0,15.967,12.773,28.74,28.74,28.74h454.52c15.967,0,28.74-12.773,28.74-28.74l-1.065-10.645
	C509.87,318.306,498.162,331.079,482.195,331.079z"/>
<path style="fill:#F2F2F2;" d="M39.385,259.762V126.705c18.095,0,31.933-13.838,31.933-31.933h367.235
	c0,18.095,13.838,31.933,31.933,31.933v131.992c-18.095,0-31.933,13.838-31.933,31.933H71.318
	C71.318,273.599,57.48,259.762,39.385,259.762z"/>
<g>
	<circle style="fill:#4CDBC4;" cx="139.439" cy="192.702" r="15.967"/>
	<circle style="fill:#4CDBC4;" cx="371.496" cy="192.702" r="15.967"/>
	<path style="fill:#4CDBC4;" d="M317.206,192.702c0,43.642-27.675,77.705-61.738,77.705c-4.258,0-8.515-1.065-12.773-2.129
		c-27.675-7.451-48.965-39.385-48.965-76.64c0-1.065,0-3.193,0-4.258c2.129-41.514,28.74-73.447,61.738-73.447
		C289.53,114.997,317.206,150.124,317.206,192.702z"/>
</g>
<path style="fill:#FFFFFF;" d="M251.209,223.571v-27.675c-8.515-2.129-14.902-6.387-19.16-10.645
	c-4.258-5.322-6.387-10.645-6.387-18.095c0-7.451,2.129-12.773,6.387-18.095c4.258-5.322,10.645-7.451,18.095-8.515v-6.387h9.58
	v6.387c7.451,1.065,12.773,3.193,17.032,7.451c4.258,4.258,6.387,9.58,7.451,15.967l-17.031,2.129
	c-1.065-5.322-3.193-8.515-7.451-10.645v25.547c10.645,3.193,18.095,6.387,21.289,10.645c4.258,4.258,5.322,10.645,5.322,17.031
	c0,7.451-2.129,14.902-7.451,20.225c-4.258,5.322-11.709,8.515-20.225,9.58v12.773h-9.58v-11.711
	c-7.451-1.065-13.838-4.258-18.095-8.515c-4.258-4.258-7.451-11.709-9.58-20.225l17.032-2.129c1.065,3.193,2.129,6.387,4.258,9.58
	C245.888,221.442,248.016,222.506,251.209,223.571z M251.209,155.446c-2.129,1.065-4.258,2.129-6.387,4.258
	c-1.065,2.129-2.129,4.258-2.129,7.451c0,2.129,1.065,4.258,2.129,6.387c1.065,2.129,3.193,3.193,6.387,5.322V155.446z
	 M260.79,224.635c3.193-1.065,6.387-2.129,8.515-4.258c2.129-2.129,3.193-5.322,3.193-8.515c0-3.193-1.065-5.322-2.129-7.451
	c-2.129-2.129-4.258-4.258-8.515-5.322v25.547H260.79L260.79,224.635z"/>
<rect x="335.301" y="54.25" style="fill:#FFD15C;" width="93.675" height="280.605"/>
<rect x="335.301" y="331.084" style="fill:#F8B64C;" width="93.675" height="126.666"/>
<g>
</g>
<g>
</g>
<g>
</g>
<g>
</g>
<g>
</g>
<g>
</g>
<g>
</g>
<g>
</g>
<g>
</g>
<g>
</g>
<g>
</g>
<g>
</g>
<g>
</g>
<g>
</g>
<g>
</g>
</svg>
