<svg xmlns="http://www.w3.org/2000/svg" height="591pt" version="1.1" viewBox="1 1 591.60001 591" width="591pt">
<g id="surface1">
<path d="M 428.691406 245.265625 L 81.65625 245.265625 C 59.109375 245.265625 40.828125 263.546875 40.828125 286.09375 L 40.828125 551.472656 L 469.515625 551.472656 L 469.515625 286.09375 C 469.515625 263.546875 451.238281 245.265625 428.691406 245.265625 Z M 428.691406 245.265625 " style=" stroke:none;fill-rule:nonzero;fill:rgb(21.960784%,49.411765%,70.196078%);fill-opacity:1;" />
<path d="M 81.65625 286.09375 L 428.691406 286.09375 L 428.691406 551.472656 L 81.65625 551.472656 Z M 81.65625 286.09375 " style=" stroke:none;fill-rule:nonzero;fill:rgb(52.941176%,80.784314%,85.098039%);fill-opacity:1;" />
<path d="M 112.277344 551.472656 L 428.691406 551.472656 L 428.691406 286.09375 L 377.65625 286.09375 Z M 112.277344 551.472656 " style=" stroke:none;fill-rule:nonzero;fill:rgb(44.313725%,76.862745%,81.960784%);fill-opacity:1;" />
<path d="M 132.691406 367.75 L 112.277344 367.75 L 112.277344 337.128906 C 112.277344 325.847656 121.410156 316.714844 132.691406 316.714844 L 163.308594 316.714844 L 163.308594 337.128906 L 132.691406 337.128906 Z M 132.691406 367.75 " style=" stroke:none;fill-rule:nonzero;fill:rgb(65.490196%,88.235294%,92.156863%);fill-opacity:1;" />
<path d="M 183.722656 480.023438 L 204.136719 480.023438 L 204.136719 500.4375 L 183.722656 500.4375 Z M 183.722656 480.023438 " style=" stroke:none;fill-rule:nonzero;fill:rgb(36.862745%,70.196078%,81.960784%);fill-opacity:1;" />
<path d="M 306.207031 480.023438 L 326.621094 480.023438 L 326.621094 500.4375 L 306.207031 500.4375 Z M 306.207031 480.023438 " style=" stroke:none;fill-rule:nonzero;fill:rgb(36.862745%,70.196078%,81.960784%);fill-opacity:1;" />
<path d="M 265.378906 480.023438 L 285.792969 480.023438 L 285.792969 500.4375 L 265.378906 500.4375 Z M 265.378906 480.023438 " style=" stroke:none;fill-rule:nonzero;fill:rgb(36.862745%,70.196078%,81.960784%);fill-opacity:1;" />
<path d="M 224.550781 480.023438 L 244.964844 480.023438 L 244.964844 500.4375 L 224.550781 500.4375 Z M 224.550781 480.023438 " style=" stroke:none;fill-rule:nonzero;fill:rgb(36.862745%,70.196078%,81.960784%);fill-opacity:1;" />
<path d="M 204.136719 0.300781 L 592 0.300781 L 592 81.957031 L 204.136719 81.957031 Z M 204.136719 0.300781 " style=" stroke:none;fill-rule:nonzero;fill:rgb(26.27451%,59.607843%,81.960784%);fill-opacity:1;" />
<path d="M 204.136719 122.78125 L 592 122.78125 L 592 204.4375 L 204.136719 204.4375 Z M 204.136719 122.78125 " style=" stroke:none;fill-rule:nonzero;fill:rgb(26.27451%,59.607843%,81.960784%);fill-opacity:1;" />
<path d="M 500.136719 326.921875 L 592 326.921875 L 592 245.265625 L 500.136719 245.265625 " style=" stroke:none;fill-rule:nonzero;fill:rgb(26.27451%,59.607843%,81.960784%);fill-opacity:1;" />
<path d="M 500.136719 449.402344 L 592 449.402344 L 592 367.75 L 500.136719 367.75 " style=" stroke:none;fill-rule:nonzero;fill:rgb(26.27451%,59.607843%,81.960784%);fill-opacity:1;" />
<path d="M 244.964844 81.957031 L 285.792969 81.957031 L 285.792969 122.78125 L 244.964844 122.78125 Z M 244.964844 81.957031 " style=" stroke:none;fill-rule:nonzero;fill:rgb(85.490196%,86.666667%,87.45098%);fill-opacity:1;" />
<path d="M 510.34375 81.957031 L 551.171875 81.957031 L 551.171875 122.78125 L 510.34375 122.78125 Z M 510.34375 81.957031 " style=" stroke:none;fill-rule:nonzero;fill:rgb(85.490196%,86.666667%,87.45098%);fill-opacity:1;" />
<path d="M 510.34375 204.4375 L 551.171875 204.4375 L 551.171875 245.265625 L 510.34375 245.265625 Z M 510.34375 204.4375 " style=" stroke:none;fill-rule:nonzero;fill:rgb(85.490196%,86.666667%,87.45098%);fill-opacity:1;" />
<path d="M 510.34375 326.921875 L 551.171875 326.921875 L 551.171875 367.75 L 510.34375 367.75 Z M 510.34375 326.921875 " style=" stroke:none;fill-rule:nonzero;fill:rgb(85.490196%,86.666667%,87.45098%);fill-opacity:1;" />
<path d="M 510.34375 449.402344 L 551.171875 449.402344 L 551.171875 490.230469 L 510.34375 490.230469 Z M 510.34375 449.402344 " style=" stroke:none;fill-rule:nonzero;fill:rgb(85.490196%,86.666667%,87.45098%);fill-opacity:1;" />
<path d="M 540.964844 30.921875 L 561.378906 30.921875 L 561.378906 51.335938 L 540.964844 51.335938 Z M 540.964844 30.921875 " style=" stroke:none;fill-rule:nonzero;fill:rgb(53.333333%,70.196078%,21.568627%);fill-opacity:1;" />
<path d="M 500.136719 30.921875 L 520.550781 30.921875 L 520.550781 51.335938 L 500.136719 51.335938 Z M 500.136719 30.921875 " style=" stroke:none;fill-rule:nonzero;fill:rgb(53.333333%,70.196078%,21.568627%);fill-opacity:1;" />
<path d="M 459.308594 30.921875 L 479.722656 30.921875 L 479.722656 51.335938 L 459.308594 51.335938 Z M 459.308594 30.921875 " style=" stroke:none;fill-rule:nonzero;fill:rgb(53.333333%,70.196078%,21.568627%);fill-opacity:1;" />
<path d="M 234.757812 30.921875 L 255.171875 30.921875 L 255.171875 51.335938 L 234.757812 51.335938 Z M 234.757812 30.921875 " style=" stroke:none;fill-rule:nonzero;fill:rgb(53.333333%,70.196078%,21.568627%);fill-opacity:1;" />
<path d="M 540.964844 153.402344 L 561.378906 153.402344 L 561.378906 173.816406 L 540.964844 173.816406 Z M 540.964844 153.402344 " style=" stroke:none;fill-rule:nonzero;fill:rgb(53.333333%,70.196078%,21.568627%);fill-opacity:1;" />
<path d="M 500.136719 153.402344 L 520.550781 153.402344 L 520.550781 173.816406 L 500.136719 173.816406 Z M 500.136719 153.402344 " style=" stroke:none;fill-rule:nonzero;fill:rgb(53.333333%,70.196078%,21.568627%);fill-opacity:1;" />
<path d="M 459.308594 153.402344 L 479.722656 153.402344 L 479.722656 173.816406 L 459.308594 173.816406 Z M 459.308594 153.402344 " style=" stroke:none;fill-rule:nonzero;fill:rgb(53.333333%,70.196078%,21.568627%);fill-opacity:1;" />
<path d="M 234.757812 153.402344 L 255.171875 153.402344 L 255.171875 173.816406 L 234.757812 173.816406 Z M 234.757812 153.402344 " style=" stroke:none;fill-rule:nonzero;fill:rgb(53.333333%,70.196078%,21.568627%);fill-opacity:1;" />
<path d="M 540.964844 275.886719 L 561.378906 275.886719 L 561.378906 296.300781 L 540.964844 296.300781 Z M 540.964844 275.886719 " style=" stroke:none;fill-rule:nonzero;fill:rgb(53.333333%,70.196078%,21.568627%);fill-opacity:1;" />
<path d="M 500.136719 275.886719 L 520.550781 275.886719 L 520.550781 296.300781 L 500.136719 296.300781 Z M 500.136719 275.886719 " style=" stroke:none;fill-rule:nonzero;fill:rgb(53.333333%,70.196078%,21.568627%);fill-opacity:1;" />
<path d="M 540.964844 398.367188 L 561.378906 398.367188 L 561.378906 418.78125 L 540.964844 418.78125 Z M 540.964844 398.367188 " style=" stroke:none;fill-rule:nonzero;fill:rgb(53.333333%,70.196078%,21.568627%);fill-opacity:1;" />
<path d="M 500.136719 398.367188 L 520.550781 398.367188 L 520.550781 418.78125 L 500.136719 418.78125 Z M 500.136719 398.367188 " style=" stroke:none;fill-rule:nonzero;fill:rgb(53.333333%,70.196078%,21.568627%);fill-opacity:1;" />
<path d="M 479.722656 592.300781 L 30.621094 592.300781 C 13.707031 592.300781 0 578.589844 0 561.679688 L 0 531.058594 L 191.523438 531.058594 C 198.515625 531.058594 204.914062 535.007812 208.039062 541.265625 C 211.160156 547.523438 217.5625 551.472656 224.550781 551.472656 L 283.386719 551.472656 C 290.378906 551.472656 296.777344 547.523438 299.902344 541.265625 C 303.023438 535.007812 309.425781 531.058594 316.414062 531.058594 L 510.34375 531.058594 L 510.34375 561.679688 C 510.34375 578.589844 496.636719 592.300781 479.722656 592.300781 Z M 479.722656 592.300781 " style=" stroke:none;fill-rule:nonzero;fill:rgb(26.27451%,59.607843%,81.960784%);fill-opacity:1;" />
</g>
</svg>