<?xml version="1.0" encoding="iso-8859-1"?>
<!-- Generator: Adobe Illustrator 21.0.0, SVG Export Plug-In . SVG Version: 6.00 Build 0)  -->
<svg version="1.1" id="Capa_1" xmlns="http://www.w3.org/2000/svg" xmlns:xlink="http://www.w3.org/1999/xlink" x="0px" y="0px"
	 viewBox="0 0 511.954 511.954" style="enable-background:new 0 0 511.954 511.954;" xml:space="preserve">
<polygon style="fill:#FD982C;" points="445.729,451.768 445.729,210.991 255.966,145.218 66.205,210.991 66.205,451.768 
	255.966,511.954 "/>
<polygon style="fill:#FA502E;" points="445.729,451.768 445.729,210.991 255.966,145.218 255.966,511.954 "/>
<polygon style="fill:#FDDA50;" points="445.729,210.991 255.966,145.218 66.205,210.991 255.966,277.761 "/>
<polygon style="fill:#FABE3D;" points="445.729,210.991 255.966,145.218 255.966,277.761 "/>
<path style="fill:#0050C3;" d="M210.101,277.776h91.752c56.233-19.146,96.796-72.477,96.796-135.104
	C398.65,64.003,334.647,0,255.977,0c-78.669,0-142.671,64.003-142.671,142.671C113.306,205.299,153.868,258.63,210.101,277.776z"/>
<path style="fill:#0040A0;" d="M301.854,277.776c56.233-19.146,96.796-72.477,96.796-135.104C398.65,64.003,334.647,0,255.977,0
	v277.776L301.854,277.776L301.854,277.776z"/>
<g>
	<path style="fill:#3AAAFF;" d="M205.866,142.671h100.222c0-50.487-16.692-100.973-50.075-142.671c-0.012,0-0.024,0-0.036,0
		c-0.012,0-0.024,0-0.036,0C222.559,41.698,205.866,92.184,205.866,142.671z"/>
	<path style="fill:#3AAAFF;" d="M210.101,277.776h40.04c-29.514-40.166-44.275-87.634-44.275-135.104h-92.561
		C113.306,205.299,153.868,258.63,210.101,277.776z"/>
	<path style="fill:#3AAAFF;" d="M301.854,277.776c56.233-19.146,96.796-72.477,96.796-135.104h-92.561
		c0,47.47-14.761,94.939-44.275,135.104H301.854z"/>
</g>
<g>
	<path style="fill:#006EFF;" d="M255.977,0v142.671h50.111c0-50.487-16.692-100.973-50.075-142.671C256.002,0,255.989,0,255.977,0z"
		/>
	<path style="fill:#006EFF;" d="M301.854,277.776c56.233-19.146,96.796-72.477,96.796-135.104h-92.561
		c0,47.47-14.761,94.939-44.275,135.104H301.854z"/>
</g>
<g>
	<polygon style="fill:#FABE3D;" points="66.205,210.991 0.513,288.724 193.848,358.981 255.966,277.761 	"/>
	<polygon style="fill:#FABE3D;" points="445.729,210.991 511.441,288.724 318.108,358.981 255.966,277.761 	"/>
</g>
<polygon style="fill:#FD982C;" points="445.729,210.991 511.441,288.724 318.108,358.981 255.966,277.761 "/>
<g>
</g>
<g>
</g>
<g>
</g>
<g>
</g>
<g>
</g>
<g>
</g>
<g>
</g>
<g>
</g>
<g>
</g>
<g>
</g>
<g>
</g>
<g>
</g>
<g>
</g>
<g>
</g>
<g>
</g>
</svg>
