<?xml version="1.0" encoding="UTF-8" standalone="no"?>
<svg
   xmlns:dc="http://purl.org/dc/elements/1.1/"
   xmlns:cc="http://creativecommons.org/ns#"
   xmlns:rdf="http://www.w3.org/1999/02/22-rdf-syntax-ns#"
   xmlns:svg="http://www.w3.org/2000/svg"
   xmlns="http://www.w3.org/2000/svg"
   viewBox="0 0 1122.52 793.70667"
   height="793.70667"
   width="1122.52"
   xml:space="preserve"
   id="svg2"
   version="1.1"><metadata
     id="metadata8"><rdf:RDF><cc:Work
         rdf:about=""><dc:format>image/svg+xml</dc:format><dc:type
           rdf:resource="http://purl.org/dc/dcmitype/StillImage" /></cc:Work></rdf:RDF></metadata><defs
     id="defs6"><clipPath
       id="clipPath18"
       clipPathUnits="userSpaceOnUse"><path
         id="path16"
         d="M 0,595.28 H 841.89 V 0 H 0 Z" /></clipPath></defs><g
     transform="matrix(1.3333333,0,0,-1.3333333,0,793.70667)"
     id="g10"><g
       id="g12"><g
         clip-path="url(#clipPath18)"
         id="g14"><g
           transform="translate(608.5449,162.2197)"
           id="g20"><path
             id="path22"
             style="fill:#c3b02f;fill-opacity:1;fill-rule:nonzero;stroke:none"
             d="m 0,0 -40.056,28.757 -10.746,-14.965 -5.358,3.852 25.844,36 5.358,-3.848 L -35.74,34.77 4.315,6.012 Z m -28.423,-32.467 -50.66,15.041 28.067,-33.802 -5.46,-4.533 -35.717,43.017 5.84,4.849 50.64,-15.013 -28.047,33.773 5.459,4.533 35.719,-43.016 z m -48.515,-35.407 -12.928,12.733 -21.292,-9.65 1.392,-17.959 -7.156,-3.241 -3.514,59.794 7.26,3.289 43.919,-41.488 z m -62.745,-23.272 -4.07,26.036 -28.716,-4.492 4.077,-26.034 -7.313,-1.144 -8.644,55.241 7.313,1.143 3.548,-22.683 28.715,4.492 -3.548,22.683 7.309,1.144 8.643,-55.24 z m -92.712,14.212 c 0.953,-3.685 2.774,-6.579 5.468,-8.667 2.689,-2.092 5.731,-3.347 9.111,-3.751 4.114,-0.497 7.742,0.266 10.879,2.297 3.142,2.028 5.497,5.317 7.071,9.865 l 7.122,-2.743 c -2.269,-5.848 -5.592,-10.115 -9.979,-12.799 -4.381,-2.684 -9.463,-3.676 -15.246,-2.981 -5.983,0.721 -10.698,2.527 -14.155,5.416 -3.456,2.89 -5.882,6.761 -7.279,11.619 -1.397,4.854 -1.779,9.93 -1.14,15.232 0.701,5.783 2.412,10.688 5.14,14.727 2.727,4.037 6.269,6.927 10.612,8.672 4.348,1.74 8.968,2.318 13.869,1.727 5.548,-0.673 10.049,-2.652 13.496,-5.937 3.447,-3.285 5.602,-7.575 6.475,-12.883 l -7.438,-0.828 c -0.8,4.195 -2.317,7.362 -4.538,9.496 -2.226,2.142 -5.197,3.433 -8.906,3.881 -4.267,0.516 -7.957,-0.075 -11.07,-1.773 -3.113,-1.702 -5.454,-4.204 -7.033,-7.509 -1.577,-3.305 -2.588,-6.789 -3.027,-10.45 -0.572,-4.72 -0.381,-8.92 0.568,-12.611 m -14.579,28.02 c -1.545,-3.652 -4.033,-6.232 -7.462,-7.733 -3.427,-1.502 -7.751,-1.544 -12.976,-0.129 1.434,-1.631 2.44,-3.066 3.017,-4.305 1.216,-2.67 2.136,-5.755 2.751,-9.245 l 3.018,-17.806 -8.567,3.628 -2.274,13.602 c -0.682,3.932 -1.316,6.989 -1.907,9.176 -0.596,2.185 -1.264,3.82 -2.002,4.907 -0.739,1.088 -1.583,1.982 -2.527,2.684 -0.706,0.491 -1.931,1.112 -3.691,1.855 l -7.899,3.351 -9.688,-22.86 -6.812,2.884 21.82,51.479 22.822,-9.672 c 4.591,-1.945 7.881,-3.886 9.878,-5.822 1.998,-1.94 3.214,-4.381 3.647,-7.328 0.434,-2.945 0.053,-5.835 -1.148,-8.666 m -60.928,12.428 -24.263,19.184 -11.804,-14.927 26.927,-21.292 -4.095,-5.171 -32.729,25.878 34.683,43.859 31.709,-25.076 -4.091,-5.178 -25.906,20.486 -10.622,-13.429 24.262,-19.19 z m -62.055,19.26 -4.113,5.831 38.239,26.98 -47.603,-13.707 -3.848,5.455 29.569,40.656 -38.893,-27.441 -4.11,5.826 45.687,32.232 6.417,-9.096 -24.715,-33.64 c -2.312,-3.123 -4.052,-5.439 -5.225,-6.95 2.026,0.652 5.039,1.563 9.039,2.737 l 39.504,11.489 5.739,-8.138 z m 428.993,121.93 c -1.182,-0.816 -2.607,-1.297 -4.147,-1.297 h -7.448 c -2.202,0 -4.285,0.991 -5.677,2.697 L 5.893,150.133 v -5.069 c 0,-11.026 0.548,-17.419 1.059,-21.753 0.742,-0.196 2.211,-0.454 4.953,-0.568 3.923,-0.167 7.018,-3.394 7.018,-7.317 v -3.815 c 0,-4.043 -3.28,-7.322 -7.323,-7.322 h -30.369 c -1.821,0 -3.465,0.69 -4.743,1.786 -2.747,-1.987 -6.136,-3.175 -9.926,-3.175 -0.363,0 -0.706,0.048 -1.059,0.073 -14.717,-72.991 -79.192,-127.959 -156.521,-127.959 -77.786,0 -142.553,55.636 -156.755,129.275 h -3.709 c -2.032,0 -3.867,0.828 -5.192,2.159 l -2.935,-1.478 c -2.767,-1.325 -5.673,-2.07 -7.92,-2.07 -7.452,0 -13.093,2.233 -16.825,6.375 -1.059,-0.977 -2.343,-1.721 -3.859,-1.935 -6.203,-0.892 -13.607,-2.412 -21.418,-4.396 -0.596,-0.147 -1.202,-0.223 -1.803,-0.223 -1.742,0 -3.449,0.624 -4.795,1.786 l -0.968,0.84 c -0.301,0.261 -0.577,0.543 -0.827,0.843 -3.407,-1.835 -7.283,-3.29 -12.155,-3.29 -4.122,0 -7.772,0.93 -10.953,2.491 0.099,-0.845 0.166,-1.699 0.274,-2.542 l -15.814,-2.785 4.128,-23.427 15.772,2.774 c 1.51,-6.749 3.236,-13.424 5.282,-19.966 l -14.985,-5.453 8.139,-22.355 15.017,5.467 c 2.679,-6.368 5.659,-12.576 8.835,-18.664 l -13.945,-8.052 11.894,-20.6 14.035,8.105 c 3.743,-5.778 7.71,-11.395 11.9,-16.831 l -12.486,-10.478 15.29,-18.226 12.591,10.565 c 4.677,-5.015 9.525,-9.878 14.598,-14.497 l -10.613,-12.644 18.226,-15.294 10.713,12.766 c 5.459,-4.108 11.122,-7.956 16.915,-11.618 l -8.424,-14.593 20.601,-11.896 8.514,14.751 c 6.069,-3.075 12.271,-5.92 18.612,-8.504 l -5.878,-16.153 22.355,-8.137 5.954,16.351 c 6.48,-1.949 13.063,-3.642 19.747,-5.072 l -3.056,-17.344 23.427,-4.134 3.114,17.64 c 6.669,-0.776 13.42,-1.287 20.238,-1.534 v -18.15 h 23.794 v 18.377 c 6.785,0.387 13.487,1.074 20.119,1.99 l 3.232,-18.323 23.432,4.13 -3.274,18.569 c 6.569,1.554 13.044,3.342 19.398,5.402 l 6.518,-17.902 22.359,8.137 -6.604,18.14 c 6.161,2.662 12.187,5.565 18.074,8.692 l 9.774,-16.926 20.606,11.896 -9.917,17.173 c 5.568,3.666 10.97,7.561 16.214,11.646 l 12.9,-15.374 18.226,15.294 -13.058,15.561 c 4.831,4.548 9.52,9.239 13.978,14.154 l 15.658,-13.139 15.294,18.222 -15.81,13.268 c 3.957,5.282 7.657,10.764 11.199,16.361 l 18.054,-10.426 11.895,20.61 -18.193,10.503 c 2.976,5.864 5.745,11.842 8.268,17.958 l 19.833,-7.217 8.137,22.355 -19.957,7.266 c 1.908,6.26 3.542,12.634 4.963,19.093 l 21.059,-3.714 4.133,23.427 -21.201,3.738 c 0.038,0.3 0.056,0.601 0.095,0.902" /></g><g
           transform="translate(347.0635,129.3135)"
           id="g24"><path
             id="path26"
             style="fill:#c3b02f;fill-opacity:1;fill-rule:nonzero;stroke:none"
             d="m 0,0 -16.291,6.904 -7.217,-17.029 14.64,-6.208 c 3.113,-1.321 5.683,-2.03 7.714,-2.13 2.026,-0.101 3.8,0.367 5.311,1.396 1.516,1.025 2.622,2.375 3.328,4.034 1.035,2.436 0.996,4.809 -0.106,7.132 C 6.279,-3.584 3.818,-1.616 0,0" /></g><g
           transform="translate(690.3408,296.3667)"
           id="g28"><path
             id="path30"
             style="fill:#c3b02f;fill-opacity:1;fill-rule:nonzero;stroke:none"
             d="M 0,0 C 0.105,-0.25 0.271,-0.428 0.387,-0.662 V 0.022 C 0.263,0.014 0.129,0.007 0,0" /></g><g
           transform="translate(545.4141,428.0547)"
           id="g32"><path
             id="path34"
             style="fill:#c3b02f;fill-opacity:1;fill-rule:nonzero;stroke:none"
             d="m 0,0 c 2.599,-2.615 4.882,-4.424 6.847,-5.428 1.969,-1.004 3.833,-1.509 5.591,-1.513 2.485,-0.008 5.121,0.686 7.911,2.078 2.788,1.395 5.682,3.581 8.676,6.555 4.147,4.124 6.656,7.971 7.533,11.547 0.872,3.576 0.72,6.715 -0.458,9.414 -0.859,1.945 -2.836,4.476 -5.94,7.596 L 21.879,38.581 -8.414,8.465 Z" /></g><g
           transform="translate(681.6318,353.2715)"
           id="g36"><path
             id="path38"
             style="fill:#c3b02f;fill-opacity:1;fill-rule:nonzero;stroke:none"
             d="m 0,0 v -3.842 c 0,-3.938 -3.114,-7.171 -7.048,-7.319 -1.371,-0.052 -2.225,-0.185 -2.722,-0.295 -0.357,-2.87 -0.714,-6.708 -0.919,-12.16 l 6.365,1.123 c 3.322,2.174 6.984,3.795 10.897,4.701 L 2.926,2.939 -0.421,2.348 C -0.167,1.607 0,0.827 0,0" /></g><g
           transform="translate(184.8159,316.4575)"
           id="g40"><path
             id="path42"
             style="fill:#c3b02f;fill-opacity:1;fill-rule:nonzero;stroke:none"
             d="m 0,0 v -24.787 c 0,-1.701 0.308,-2.451 0.419,-2.669 0.008,0.004 0.018,0.004 0.029,0.004 0.072,0 0.237,-0.023 0.482,-0.023 0.893,0 1.924,0.343 3.074,1.025 V -1.168 L 2.623,-0.949 C 1.671,-0.801 0.787,-0.468 0,0" /></g><g
           transform="translate(218.4219,287.9092)"
           id="g44"><path
             id="path46"
             style="fill:#c3b02f;fill-opacity:1;fill-rule:nonzero;stroke:none"
             d="M 0,0 0.563,-0.005 V 26.16 H 0.053 C 0.034,26.16 0.02,26.165 0,26.165 Z" /></g><g
           transform="translate(155.2056,293.3066)"
           id="g48"><path
             id="path50"
             style="fill:#c3b02f;fill-opacity:1;fill-rule:nonzero;stroke:none"
             d="M 0,0 V 16.119 H -5.378 V 14.452 C -3.641,9.749 -1.862,4.96 0,0" /></g><g
           transform="translate(495.6699,121.2715)"
           id="g52"><path
             id="path54"
             style="fill:#c3b02f;fill-opacity:1;fill-rule:nonzero;stroke:none"
             d="M 0,0 1.174,-17.473 18.441,-9.648 6.731,2.05 C 3.171,5.598 0.373,8.572 -1.664,10.975 -0.834,7.413 -0.281,3.757 0,0" /></g><g
           transform="translate(255.5225,314.7217)"
           id="g56"><path
             id="path58"
             style="fill:#c3b02f;fill-opacity:1;fill-rule:nonzero;stroke:none"
             d="m 0,0 c -0.948,-0.429 -1.976,-0.653 -3.018,-0.653 h -3.923 v -22.211 c 0,-1.907 0.255,-3.029 0.467,-3.634 0.441,0.144 1.032,0.392 1.792,0.825 1.786,1.021 3.917,1.249 5.867,0.61 0.484,-0.152 0.908,-0.419 1.337,-0.676 -0.128,2.626 -0.2,5.27 -0.2,7.93 0,4.918 0.257,9.771 0.691,14.577 V 2.236 C 2.139,1.326 1.161,0.524 0,0" /></g><g
           transform="translate(372.4834,501.0972)"
           id="g60"><path
             id="path62"
             style="fill:#c3b02f;fill-opacity:1;fill-rule:nonzero;stroke:none"
             d="m 0,0 c 1.664,1.168 2.775,2.622 3.337,4.364 0.563,1.74 0.615,3.484 0.148,5.228 -0.682,2.555 -2.169,4.41 -4.462,5.561 -2.294,1.152 -5.445,1.195 -9.45,0.127 l -17.095,-4.556 4.762,-17.873 15.365,4.093 C -4.129,-2.184 -1.659,-1.166 0,0" /></g><g
           transform="translate(235.4854,442.6099)"
           id="g64"><path
             id="path66"
             style="fill:#c3b02f;fill-opacity:1;fill-rule:nonzero;stroke:none"
             d="m 0,0 39.608,-17.099 c 3.175,-1.368 6.074,-2.734 8.696,-4.102 -1.645,2.715 -3.185,5.53 -4.634,8.45 l -19.385,38.76 5.154,5.52 25.93,-54.16 -5.182,-5.548 -55.651,22.324 z M 78.849,63.686 82.282,58.048 54.067,40.878 62.968,26.25 89.39,42.33 92.803,36.726 66.382,20.646 76.274,4.388 105.595,22.235 109.027,16.598 73.386,-5.094 44.313,42.666 Z m 45.839,15.974 c 4.815,1.282 8.606,1.773 11.371,1.47 2.765,-0.302 5.225,-1.482 7.375,-3.54 2.155,-2.059 3.628,-4.574 4.42,-7.547 1.02,-3.833 0.643,-7.394 -1.14,-10.683 -1.783,-3.29 -5.168,-5.983 -10.164,-8.076 2.136,-0.406 3.809,-0.918 5.03,-1.543 2.598,-1.359 5.215,-3.227 7.847,-5.604 l 13.315,-12.2 -8.991,-2.397 -10.145,9.336 c -2.951,2.687 -5.335,4.708 -7.142,6.069 -1.812,1.359 -3.341,2.241 -4.591,2.644 -1.254,0.402 -2.469,0.594 -3.647,0.57 -0.853,-0.046 -2.207,-0.313 -4.047,-0.804 l -8.291,-2.209 6.393,-23.993 -7.151,-1.904 -14.399,54.027 z m 48.324,6.977 3.051,-55.829 -7.39,-0.404 -3.047,55.83 z m 21.063,0.486 37.424,-4.727 -0.829,-6.545 -30.083,3.799 -2.169,-17.179 26.035,-3.288 -0.83,-6.545 -26.031,3.286 -3.184,-25.2 -7.342,0.927 z m 55.374,-10.257 7.052,-2.253 -17.022,-53.26 -7.05,2.253 z m 27.265,-9.261 35.408,-19.513 -3.184,-5.779 -28.929,15.941 -8.268,-14.996 27.089,-14.93 -3.165,-5.747 -27.089,14.929 -9.187,-16.667 30.064,-16.567 -3.184,-5.78 -36.544,20.139 z m 54.559,-33.68 13.578,-13.661 c 3.065,-3.082 5.215,-5.623 6.451,-7.623 1.734,-2.792 2.712,-5.671 2.941,-8.639 0.31,-3.85 -0.396,-7.659 -2.111,-11.43 -1.722,-3.769 -4.35,-7.411 -7.882,-10.925 -3.013,-2.994 -6.03,-5.294 -9.054,-6.903 -3.027,-1.612 -5.848,-2.622 -8.467,-3.036 -2.618,-0.416 -5.01,-0.404 -7.184,0.035 -2.173,0.436 -4.405,1.356 -6.694,2.756 -2.288,1.401 -4.624,3.299 -7.007,5.697 L 291.618,-5.495 Z M -80.442,-109.009 c 5.292,0.296 14.843,1.416 21.566,2.236 2.095,0.233 4.174,-0.4 5.739,-1.788 0.671,-0.596 1.217,-1.297 1.624,-2.068 1.165,0.943 2.63,1.539 4.236,1.62 6.012,0.31 16.629,1.507 21.911,2.222 2.088,0.271 4.207,-0.348 5.8,-1.74 0.326,-0.286 0.606,-0.616 0.872,-0.949 0.663,0.572 1.383,1.063 2.193,1.363 v 0.601 c 0,2.298 1.081,4.468 2.918,5.85 l 12.83,9.659 c 2.2,1.654 5.143,1.936 7.613,0.734 l 2.121,-1.034 c 2.518,-1.231 4.115,-3.786 4.115,-6.585 v -8.767 h 4.773 c 1.739,0 3.422,-0.619 4.747,-1.75 0.168,-0.142 0.28,-0.338 0.434,-0.491 v 12.153 0.5 c -0.395,0.029 -0.777,0.053 -1.098,0.072 -3.867,0.234 -6.882,3.437 -6.882,7.308 v 3.519 c 0,3.609 2.626,6.679 6.19,7.237 4.298,0.669 10.882,1.878 17.092,3.12 25.885,53.258 80.497,89.972 143.69,89.972 87.582,0 158.651,-70.511 159.634,-157.859 7.333,-0.881 13.058,-6.335 14.355,-13.586 0.247,0.038 0.52,0.075 0.681,0.113 0.792,5.779 1.159,12.916 1.159,22.021 v 24.286 c 0,6.284 -0.058,8.391 -0.72,9.254 -0.319,0.41 -0.744,0.949 -5.163,1.306 -3.804,0.31 -6.732,3.485 -6.732,7.299 v 3.843 c 0,4.043 3.28,7.322 7.323,7.322 h 21.276 c 2.137,0 4.164,-0.929 5.556,-2.55 l 34.732,-40.39 v 2.126 c 0,11.595 -0.579,17.931 -1.054,21.745 -0.76,0.195 -2.233,0.453 -5.007,0.591 -3.894,0.196 -6.956,3.409 -6.956,7.313 v 3.843 c 0,4.043 3.28,7.322 7.323,7.322 h 17.316 c -0.935,3.66 -1.926,7.297 -3.037,10.885 l 20.27,7.378 -8.128,22.354 -20.261,-7.375 c -2.536,6.078 -5.345,12.012 -8.335,17.837 l 18.68,10.785 -11.885,20.604 -18.636,-10.76 c -3.542,5.545 -7.256,10.971 -11.208,16.207 L 399.615,19.654 384.33,37.882 368.026,24.2 c -4.444,4.858 -9.107,9.51 -13.912,14.009 l 13.631,16.245 -18.217,15.299 -13.53,-16.124 c -5.212,4.034 -10.584,7.869 -16.115,11.49 L 330.319,83.193 309.72,95.094 299.393,77.209 c -5.839,3.08 -11.809,5.96 -17.912,8.584 l 6.99,19.201 -22.355,8.146 -6.919,-19.009 c -6.298,2.024 -12.709,3.779 -19.213,5.309 l 3.487,19.759 -23.428,4.138 -3.446,-19.542 c -6.561,0.901 -13.193,1.578 -19.906,1.964 v 19.614 h -23.794 v -19.39 c -6.746,-0.241 -13.425,-0.741 -20.028,-1.504 l -3.323,18.851 -23.432,-4.131 3.271,-18.538 c -6.618,-1.407 -13.135,-3.087 -19.552,-5.004 l -6.36,17.475 -22.354,-8.138 6.269,-17.232 C 81.109,85.211 74.954,82.413 68.937,79.383 L 59.87,95.087 39.265,83.193 48.213,67.693 C 42.463,64.079 36.833,60.287 31.403,56.232 L 20.066,69.746 1.84,54.452 13.039,41.103 C 7.99,36.533 3.17,31.725 -1.493,26.765 L -14.737,37.877 -30.031,19.651 -16.953,8.682 C -21.14,3.294 -25.116,-2.263 -28.862,-7.986 l -14.613,8.436 -11.895,-20.605 14.431,-8.334 c -3.184,-6.047 -6.169,-12.219 -8.862,-18.545 l -15.475,5.633 -8.139,-22.355 15.356,-5.59 c -2.069,-6.512 -3.838,-13.154 -5.382,-19.884 l -16.043,2.829 -4.128,-23.428 0.178,-0.031 c 0.904,0.477 1.91,0.789 2.992,0.851" /></g><g
           transform="translate(127.6299,273.8311)"
           id="g68"><path
             id="path70"
             style="fill:#085581;fill-opacity:1;fill-rule:nonzero;stroke:none"
             d="M 0,0 H 33.487 V 3.814 C 27.008,4.625 25.035,5.12 20.805,16.672 16.162,29.039 10.766,43.646 5.64,58.08 L -2.417,80.813 -8.424,79.167 -33.134,16.291 C -37.405,5.273 -39.002,4.696 -46.316,3.814 V 0 h 27.561 v 3.814 l -3.022,0.338 c -5.66,0.634 -5.874,1.942 -4.082,8.1 1.592,5.298 3.19,10.663 4.692,14.231 H 0.496 C 2.346,21.999 4.677,15.599 6.26,11.537 8.329,6.273 7.7,4.93 3.199,4.271 L 0,3.814 Z m -10.75,57.889 h 0.348 l 8.839,-25.21 h -17.931 l 8.744,25.21" /></g><g
           transform="translate(196.1436,316.3457)"
           id="g72"><path
             id="path74"
             style="fill:#085581;fill-opacity:1;fill-rule:nonzero;stroke:none"
             d="m 0,0 c 0,4.474 -0.596,5.255 -3.761,5.792 l -3.8,0.601 v 3.549 c 6.131,0.312 16.768,1.499 22.517,2.277 v -41.546 c 0,-5.074 0.491,-6.436 4.386,-6.436 h 3.804 V -39.54 C 15.81,-40.594 7.971,-42.306 0.968,-44.083 L 0,-43.244 v 7.833 c -2.308,-1.696 -4.367,-3.261 -7.07,-4.911 -3.781,-2.297 -6.861,-3.58 -10.708,-3.58 -10.212,0 -15.837,6.795 -15.837,16.175 V 0 c 0,4.474 -0.596,5.255 -3.757,5.792 l -3.318,0.601 v 3.549 c 5.625,0.312 15.656,1.499 22.04,2.277 v -36.896 c 0,-7.196 3.657,-10.01 8.253,-10.01 3.437,0 6.845,1.602 10.397,4.682 L 0,0" /></g><g
           transform="translate(241.2583,291.8574)"
           id="g76"><path
             id="path78"
             style="fill:#085581;fill-opacity:1;fill-rule:nonzero;stroke:none"
             d="m 0,0 c 0,-9.383 4.629,-11.137 6.846,-11.137 1.936,0 4.033,0.639 6.364,1.968 l 1.684,-3.66 -10.513,-5.302 c -1.94,-0.926 -3.776,-1.283 -4.624,-1.283 -9.449,0 -14.708,4.101 -14.708,14.975 v 33.97 h -7.833 l -0.863,1.562 3.924,4.682 h 4.772 v 7.463 L -2.122,52.897 0,51.865 V 35.775 H 12.096 C 13.673,34.43 13.45,30.531 11.247,29.531 H 0 V 0" /></g><g
           transform="translate(280.8242,321.2388)"
           id="g80"><path
             id="path82"
             style="fill:#085581;fill-opacity:1;fill-rule:nonzero;stroke:none"
             d="m 0,0 c 4.133,4.081 10.312,7.821 16.705,7.821 11.123,0 17.263,-6.967 17.263,-18.491 v -24.786 c 0,-6.86 0.61,-7.327 7.375,-8.137 v -3.815 H 12.62 v 3.815 c 5.911,0.81 6.392,1.277 6.392,8.137 v 23.444 c 0,7.562 -4.233,10.775 -9.335,10.775 -3.37,0 -6.922,-1.235 -9.677,-4.023 v -30.196 c 0,-6.86 0.586,-7.327 5.687,-8.137 v -3.815 h -29.449 v 3.815 c 8.172,0.81 8.797,1.277 8.797,8.137 v 59.084 c 0,7.237 -0.235,7.411 -7.981,7.88 v 3.519 C -17.525,35.875 -8.105,37.625 0,39.341 V 0" /></g><g
           transform="translate(353.0889,329.0601)"
           id="g84"><path
             id="path86"
             style="fill:#085581;fill-opacity:1;fill-rule:nonzero;stroke:none"
             d="m 0,0 c -13.739,0 -28.909,-10.293 -28.909,-29.685 0,-13.077 9.43,-26.932 28.275,-26.932 14.089,0 28.181,9.569 28.181,29.521 C 27.547,-12.872 17.016,0 0,0 m -12.028,-24.774 c 0,13.248 5.182,19.73 10.178,19.73 7.824,0 12.515,-9.43 12.515,-25.761 0,-17.701 -5.492,-20.735 -9.921,-20.735 -7.861,0 -12.772,11.395 -12.772,26.766" /></g><g
           transform="translate(406.8188,285.7832)"
           id="g88"><path
             id="path90"
             style="fill:#085581;fill-opacity:1;fill-rule:nonzero;stroke:none"
             d="m 0,0 c 0,-6.832 0.596,-7.327 10.012,-8.138 v -3.814 h -33.305 v 3.814 c 7.689,0.811 8.318,1.306 8.318,8.138 v 27.125 c 0,7.463 -0.233,7.556 -8.095,8.447 v 3.302 c 7.151,1.008 14.98,2.639 23.07,4.403 V 31.126 h 0.243 c 1.559,2.478 3.418,5.4 5.716,7.829 2.332,2.477 5.025,4.322 8.091,4.322 4.649,0 8.204,-3.395 8.204,-7.473 0,-4.053 -2.707,-7.604 -5.788,-8.679 -1.591,-0.673 -2.778,-0.219 -3.775,0.495 -2.06,1.65 -4.167,2.575 -6.108,2.575 C 4.515,30.195 2.055,29.27 0,24.169 V 0" /></g><g
           transform="translate(454.0459,348.3706)"
           id="g92"><path
             id="path94"
             style="fill:#085581;fill-opacity:1;fill-rule:nonzero;stroke:none"
             d="m 0,0 c 0,-4.965 -3.915,-8.837 -8.872,-8.837 -4.754,0 -8.901,3.872 -8.901,8.837 0,4.982 4.147,8.896 8.901,8.896 C -3.915,8.896 0,4.982 0,0 m -15.332,-35.463 c 0,7.464 -0.233,7.557 -8.062,8.448 v 3.302 c 7.194,1.008 15.298,2.638 23.027,4.402 v -43.124 c 0,-6.984 0.614,-7.48 8.399,-8.29 v -3.815 h -31.789 v 3.815 c 7.833,0.81 8.425,1.306 8.425,8.29 v 26.972" /></g><g
           transform="translate(510.7305,327.6563)"
           id="g96"><path
             id="path98"
             style="fill:#085581;fill-opacity:1;fill-rule:nonzero;stroke:none"
             d="m 0,0 1.088,-1.76 -28.139,-46.868 h 9.684 c 8.409,0 11.694,1.524 15.799,8.485 l 1.797,3.041 4.405,-1.639 C 2.442,-44.814 0.858,-49.344 -1,-53.825 h -44.152 l -1.22,1.793 29.005,46.849 h -8.601 c -8.086,0 -10.251,-1.856 -13.058,-7.887 l -1.741,-3.748 -4.385,1.643 c 1.444,4.631 3.376,12.383 4.509,17.733 h 2.712 C -37.314,0.76 -35.999,0 -31.331,0 H 0" /></g><g
           transform="translate(559.8506,287.9951)"
           id="g100"><path
             id="path102"
             style="fill:#085581;fill-opacity:1;fill-rule:nonzero;stroke:none"
             d="m 0,0 c -4.93,-3.304 -8.725,-4.734 -13.23,-4.734 -9.33,0 -17.654,6.326 -17.654,20.033 12.161,0.482 28.447,1.612 30.141,1.964 2.431,0.472 2.798,0.747 2.798,5.335 0,9.451 -8.463,18.428 -19.066,18.428 -14.918,0 -28.108,-13.129 -28.108,-30.766 0,-13.711 9.501,-25.812 26.011,-25.812 4.266,0 13.836,2.465 20.796,13.116 z m -30.351,20.808 c 0.721,8.309 5.264,14.65 9.775,14.65 4.647,0 8.553,-6.419 8.553,-11.38 0,-2.381 -0.473,-2.889 -2.284,-2.889 l -16.044,-0.381" /></g><g
           transform="translate(565.8486,282.0215)"
           id="g104"><path
             id="path106"
             style="fill:#085581;fill-opacity:1;fill-rule:nonzero;stroke:none"
             d="m 0,0 c 0,5.512 4.019,9.57 9.259,9.57 5.348,0 9.39,-4.058 9.39,-9.57 0,-5.717 -4.042,-9.578 -9.39,-9.578 C 4.019,-9.578 0,-5.717 0,0" /></g><g
           transform="translate(663.4336,272.9482)"
           id="g108"><path
             id="path110"
             style="fill:#085581;fill-opacity:1;fill-rule:nonzero;stroke:none"
             d="m 0,0 h -7.447 l -48.614,59.671 h -0.257 V 34.336 c 0,-12.865 0.739,-19.643 1.21,-23.45 0.634,-4.24 3.695,-5.851 11.819,-6.189 V 0.883 h -30.368 v 3.814 c 6.121,0.234 9.057,1.949 9.625,6.189 0.549,3.807 1.278,10.585 1.278,23.45 v 24.283 c 0,7.783 0,10.801 -2.226,13.707 -2.332,2.973 -5.398,3.747 -10.389,4.155 v 3.842 h 21.276 L -6.731,25.245 h 0.248 v 21.587 c 0,12.839 -0.702,19.57 -1.212,23.427 -0.619,4.312 -3.696,5.814 -11.804,6.222 v 3.842 H 10.875 V 76.481 C 4.715,76.245 1.821,74.571 1.206,70.259 0.72,66.402 0,59.671 0,46.832 V 0" /></g><g
           transform="translate(712.6904,287.9951)"
           id="g112"><path
             id="path114"
             style="fill:#085581;fill-opacity:1;fill-rule:nonzero;stroke:none"
             d="m 0,0 c -4.934,-3.304 -8.709,-4.734 -13.272,-4.734 -9.278,0 -17.587,6.326 -17.587,20.033 12.109,0.482 28.39,1.611 30.102,1.964 2.441,0.472 2.798,0.747 2.798,5.335 0,9.451 -8.429,18.428 -19.074,18.428 -14.917,0 -28.138,-13.129 -28.138,-30.766 0,-13.711 9.559,-25.812 26.025,-25.812 4.311,0 13.87,2.465 20.83,13.116 z m -30.35,20.808 c 0.703,8.309 5.245,14.65 9.75,14.65 4.639,0 8.543,-6.419 8.543,-11.38 0,-2.381 -0.433,-2.889 -2.315,-2.889 L -30.35,20.808" /></g><g
           transform="translate(738.5498,291.8574)"
           id="g116"><path
             id="path118"
             style="fill:#085581;fill-opacity:1;fill-rule:nonzero;stroke:none"
             d="m 0,0 c 0,-9.383 4.62,-11.137 6.86,-11.137 1.912,0 4.02,0.639 6.327,1.968 l 1.721,-3.66 -10.521,-5.302 c -1.946,-0.926 -3.739,-1.283 -4.644,-1.283 -9.397,0 -14.747,4.101 -14.747,14.975 v 33.97 h -7.765 l -0.858,1.562 3.924,4.682 h 4.699 v 7.463 L -2.103,52.897 0,51.865 v -16.09 h 12.096 c 1.601,-1.345 1.32,-5.244 -0.849,-6.244 L 0,29.531 V 0" /></g><g
           transform="translate(751.9463,338.5308)"
           id="g120"><path
             id="path122"
             style="fill:#085581;fill-opacity:1;fill-rule:nonzero;stroke:none"
             d="m 0,0 h 0.812 c 0.539,0 0.915,0.145 1.114,0.434 0.215,0.295 0.315,0.612 0.315,0.958 0,0.217 -0.038,0.405 -0.11,0.587 C 2.041,2.145 1.897,2.291 1.746,2.405 1.578,2.521 1.293,2.574 0.878,2.574 H 0 Z M 0,-3.955 H -1.201 V 3.484 H 1.197 C 1.764,3.484 2.223,3.404 2.518,3.23 2.808,3.061 3.047,2.82 3.223,2.498 3.386,2.176 3.48,1.823 3.48,1.461 3.48,1.022 3.347,0.613 3.137,0.212 2.875,-0.179 2.518,-0.482 2.041,-0.694 2.279,-0.858 2.565,-1.213 2.875,-1.771 L 4.028,-3.955 H 2.686 l -0.959,1.833 -0.245,0.468 c -0.275,0.493 -0.47,0.738 -0.604,0.738 H 0 Z m 1.149,-1.543 c 0.916,0 1.784,0.218 2.575,0.671 0.805,0.443 1.464,1.079 1.931,1.89 0.471,0.81 0.72,1.693 0.71,2.646 0,0.928 -0.239,1.8 -0.681,2.61 C 5.216,3.134 4.582,3.767 3.762,4.229 2.933,4.696 2.065,4.927 1.149,4.927 c -0.916,0 -1.772,-0.231 -2.58,-0.698 -0.828,-0.462 -1.472,-1.095 -1.925,-1.91 -0.463,-0.81 -0.691,-1.682 -0.691,-2.61 0,-0.953 0.228,-1.836 0.7,-2.646 0.501,-0.811 1.14,-1.447 1.946,-1.89 0.778,-0.453 1.654,-0.671 2.55,-0.671 m 0,-0.934 c -1.072,0 -2.084,0.26 -3.023,0.794 -0.943,0.53 -1.692,1.269 -2.269,2.232 -0.571,0.96 -0.834,1.999 -0.834,3.115 0,1.101 0.263,2.124 0.81,3.087 0.545,0.947 1.303,1.702 2.274,2.246 0.931,0.548 1.97,0.822 3.042,0.822 1.092,0 2.122,-0.274 3.076,-0.822 C 5.188,4.498 5.931,3.743 6.475,2.796 7.032,1.833 7.31,0.81 7.31,-0.291 7.31,-1.407 7.022,-2.446 6.451,-3.406 5.883,-4.369 5.13,-5.108 4.187,-5.638 3.242,-6.172 2.232,-6.432 1.149,-6.432" /></g><g
           transform="translate(505.0527,220.6641)"
           id="g124"><path
             id="path126"
             style="fill:#8a898a;fill-opacity:1;fill-rule:evenodd;stroke:none"
             d="m 0,0 v 8.271 h -8.267 v 8.272 h -8.267 v 8.267 h -8.276 v -57.892 h 8.276 v 8.271 h 8.267 v 8.268 H 0 v 8.275 H 8.276 V 0 Z" /></g><path
           id="path128"
           style="fill:#8a898a;fill-opacity:1;fill-rule:evenodd;stroke:none"
           d="m 335.511,235.138 h 20.677 v 8.271 h -20.677 z" /><path
           id="path130"
           style="fill:#8a898a;fill-opacity:1;fill-rule:evenodd;stroke:none"
           d="m 409.946,220.664 h 16.538 v 8.271 h -16.538 z" /><path
           id="path132"
           style="fill:#8a898a;fill-opacity:1;fill-rule:evenodd;stroke:none"
           d="m 426.484,212.396 h 8.272 v 8.268 h -8.272 z" /><path
           id="path134"
           style="fill:#8a898a;fill-opacity:1;fill-rule:evenodd;stroke:none"
           d="m 434.757,206.19 h -8.272 v -8.268 h 8.272 z" /><path
           id="path136"
           style="fill:#8a898a;fill-opacity:1;fill-rule:evenodd;stroke:none"
           d="m 426.484,197.923 h -16.538 v -8.271 h 16.538 z" /><path
           id="path138"
           style="fill:#8a898a;fill-opacity:1;fill-rule:evenodd;stroke:none"
           d="m 401.675,197.923 h 8.271 v 22.741 h -8.271 z" /><path
           id="path140"
           style="fill:#8a898a;fill-opacity:1;fill-rule:evenodd;stroke:none"
           d="m 356.188,226.872 h 8.271 v 8.266 h -8.271 z" /><path
           id="path142"
           style="fill:#8a898a;fill-opacity:1;fill-rule:evenodd;stroke:none"
           d="m 465.77,218.595 h 8.275 v 8.277 h -8.275 z" /><path
           id="path144"
           style="fill:#8a898a;fill-opacity:1;fill-rule:evenodd;stroke:none"
           d="m 474.045,197.923 h -8.275 v -8.271 h 8.275 z" /><g
           transform="translate(457.502,212.3965)"
           id="g146"><path
             id="path148"
             style="fill:#8a898a;fill-opacity:1;fill-rule:evenodd;stroke:none"
             d="m 0,0 h -8.267 v 31.013 h -8.276 v -53.758 h 8.276 v 14.47 H 0 v -6.199 H 8.268 V 6.198 H 0 Z" /></g><path
           id="path150"
           style="fill:#8a898a;fill-opacity:1;fill-rule:evenodd;stroke:none"
           d="m 364.459,206.19 h -8.271 v -8.268 h 8.271 z" /><path
           id="path152"
           style="fill:#8a898a;fill-opacity:1;fill-rule:evenodd;stroke:none"
           d="m 356.188,197.923 h -20.677 v -8.271 h 20.677 z" /><path
           id="path154"
           style="fill:#8a898a;fill-opacity:1;fill-rule:evenodd;stroke:none"
           d="m 327.24,197.923 h 8.271 v 37.215 h -8.271 z" /><path
           id="path156"
           style="fill:#8a898a;fill-opacity:1;fill-rule:evenodd;stroke:none"
           d="m 372.727,189.651 h 8.271 v 53.758 h -8.271 z" /><path
           id="path158"
           style="fill:#8a898a;fill-opacity:1;fill-rule:evenodd;stroke:none"
           d="m 387.2,189.651 h 8.271 v 39.284 H 387.2 Z" /><path
           id="path160"
           style="fill:#8a898a;fill-opacity:1;fill-rule:evenodd;stroke:none"
           d="m 387.2,235.138 h 8.271 v 8.271 H 387.2 Z" /></g></g></g></svg>