<svg xmlns="http://www.w3.org/2000/svg" height="633pt" version="1.1" viewBox="0 0 633 633.65541" width="633pt">
<defs>
<linearGradient gradientTransform="matrix(2.668152,0,0,2.668152,-17.856427,-1463.674322)" gradientUnits="userSpaceOnUse" id="linear0" x1="-23.1397" x2="259.7451" y1="667.3218" y2="667.3218">
<stop offset="0" style="stop-color:rgb(100%,60%,70.980392%);stop-opacity:1;" />
<stop offset="1" style="stop-color:rgb(100%,86.27451%,40.784314%);stop-opacity:1;" />
</linearGradient>
<linearGradient gradientTransform="matrix(2.668152,0,0,2.668152,-17.856427,-1463.674322)" gradientUnits="userSpaceOnUse" id="linear1" x1="-15.734" x2="98.6833" y1="693.0663" y2="693.0663">
<stop offset="0" style="stop-color:rgb(100%,60%,70.980392%);stop-opacity:1;" />
<stop offset="1" style="stop-color:rgb(100%,86.27451%,40.784314%);stop-opacity:1;" />
</linearGradient>
</defs>
<g id="surface1">
<path d="M 317.332031 0.0234375 C 142.335938 0.0234375 0.359375 142 0.359375 316.996094 C 0.359375 491.992188 142.335938 633.96875 317.332031 633.96875 C 492.328125 633.96875 634.304688 491.992188 634.304688 316.996094 C 633.972656 142 492.328125 0.355469 317.332031 0.0234375 Z M 317.332031 0.0234375 " style=" stroke:none;fill-rule:nonzero;fill:rgb(100%,94.901961%,77.647059%);fill-opacity:1;" />
<path d="M 396.574219 607.554688 C 221.578125 607.554688 79.601562 465.578125 79.601562 290.582031 C 79.601562 169.40625 148.941406 58.796875 257.898438 5.636719 C 85.875 38.65625 -26.714844 204.40625 5.972656 376.429688 C 38.660156 548.453125 204.742188 661.042969 376.765625 628.355469 C 404.167969 623.074219 430.914062 614.15625 456.335938 601.941406 C 436.527344 605.574219 416.386719 607.554688 396.574219 607.554688 Z M 396.574219 607.554688 " style=" stroke:none;fill-rule:nonzero;fill:rgb(100%,92.941176%,70.588235%);fill-opacity:1;" />
<path d="M 557.042969 524.019531 L 479.78125 427.605469 C 477.140625 424.304688 475.488281 420.34375 474.496094 416.378906 L 450.722656 298.175781 C 449.734375 293.222656 450.0625 287.941406 452.046875 283.316406 L 498.269531 167.425781 C 500.582031 161.480469 500.910156 155.207031 498.929688 149.265625 L 475.816406 79.265625 L 501.242188 58.796875 C 386.339844 -23.089844 230.824219 -19.125 120.542969 68.699219 L 205.730469 177 C 209.695312 181.953125 215.304688 185.253906 221.25 186.574219 L 331.199219 208.695312 C 339.125 210.347656 346.058594 215.632812 349.691406 222.894531 L 391.621094 307.089844 C 394.59375 313.363281 395.253906 320.628906 392.941406 327.230469 L 370.820312 393.269531 C 370.160156 395.25 369.5 396.898438 368.511719 398.550781 L 297.519531 517.414062 C 293.230469 524.347656 292.570312 532.601562 295.539062 540.199219 L 330.539062 633.636719 C 417.707031 630.007812 499.921875 590.386719 557.042969 524.019531 Z M 557.042969 524.019531 " style=" stroke:none;fill-rule:nonzero;fill:url(#linear0);" />
<path d="M 109.320312 465.578125 L 131.441406 399.542969 C 132.101562 397.230469 133.089844 395.25 134.414062 393.269531 L 175.355469 331.523438 C 181.296875 322.609375 181.296875 311.054688 175.355469 302.136719 L 140.027344 249.308594 C 135.074219 242.046875 126.816406 237.421875 117.902344 237.421875 L 91.488281 237.421875 C 83.566406 237.421875 76.300781 233.789062 71.019531 227.847656 L 31.726562 179.640625 C -40.253906 329.210938 15.546875 508.832031 159.175781 591.375 L 110.308594 484.726562 C 107.667969 478.785156 107.335938 471.851562 109.320312 465.578125 Z M 109.320312 465.578125 " style=" stroke:none;fill-rule:nonzero;fill:url(#linear1);" />
</g>
</svg>