<svg xmlns="http://www.w3.org/2000/svg" height="628pt" version="1.1" viewBox="1 -3 628.69875 628" width="628pt">
<defs>
<linearGradient gradientTransform="matrix(2.66807,0,0,-2.66807,-14.003751,1808.840436)" gradientUnits="userSpaceOnUse" id="linear0" x1="143.7074" x2="202.7646" y1="481.5323" y2="540.5894">
<stop offset="0" style="stop-color:rgb(100%,60%,70.980392%);stop-opacity:1;" />
<stop offset="1" style="stop-color:rgb(100%,86.27451%,40.784314%);stop-opacity:1;" />
</linearGradient>
<linearGradient gradientTransform="matrix(2.66807,0,0,-2.66807,-14.003751,1808.840436)" gradientUnits="userSpaceOnUse" id="linear1" x1="76.0571" x2="131.7" y1="611.8817" y2="667.5246">
<stop offset="0" style="stop-color:rgb(100%,60%,70.980392%);stop-opacity:1;" />
<stop offset="1" style="stop-color:rgb(100%,86.27451%,40.784314%);stop-opacity:1;" />
</linearGradient>
</defs>
<g id="surface1">
<path d="M 175.046875 438.308594 L 42.988281 623.21875 L 0 592.515625 L 132.058594 407.605469 Z M 175.046875 438.308594 " style=" stroke:none;fill-rule:nonzero;fill:rgb(100%,86.27451%,40.784314%);fill-opacity:1;" />
<path d="M 446.523438 423.082031 L 441.742188 475.691406 L 151.191406 449.289062 L 155.972656 396.679688 Z M 446.523438 423.082031 " style=" stroke:none;fill-rule:nonzero;fill:rgb(100%,86.27451%,40.784314%);fill-opacity:1;" />
<path d="M 575.179688 86.839844 L 469.496094 456.617188 L 418.699219 442.101562 L 524.382812 72.320312 Z M 575.179688 86.839844 " style=" stroke:none;fill-rule:nonzero;fill:rgb(100%,86.27451%,40.784314%);fill-opacity:1;" />
<path d="M 552.171875 105.890625 L 261.621094 132.324219 L 256.835938 79.714844 L 547.386719 53.28125 Z M 552.171875 105.890625 " style=" stroke:none;fill-rule:nonzero;fill:rgb(100%,86.27451%,40.784314%);fill-opacity:1;" />
<path d="M 467.375 436.851562 L 420.863281 461.898438 L 235.96875 118.511719 L 282.480469 93.464844 Z M 467.375 436.851562 " style=" stroke:none;fill-rule:nonzero;fill:rgb(100%,86.27451%,40.784314%);fill-opacity:1;" />
<path d="M 153.578125 343.726562 C 109.8125 343.726562 74.335938 379.203125 74.335938 422.96875 C 74.335938 466.730469 109.8125 502.207031 153.578125 502.207031 C 197.339844 502.207031 232.816406 466.730469 232.816406 422.96875 C 232.769531 379.222656 197.320312 343.773438 153.578125 343.726562 Z M 153.578125 343.726562 " style=" stroke:none;fill-rule:nonzero;fill:rgb(100%,94.901961%,77.647059%);fill-opacity:1;" />
<path d="M 179.992188 475.792969 C 136.246094 475.8125 100.769531 440.367188 100.75 396.625 C 100.746094 382.054688 104.757812 367.761719 112.347656 355.324219 C 74.976562 378.082031 63.132812 426.824219 85.886719 464.195312 C 108.640625 501.566406 157.386719 513.414062 194.757812 490.65625 C 205.5625 484.074219 214.636719 475 221.21875 464.195312 C 208.8125 471.796875 194.542969 475.8125 179.992188 475.792969 Z M 179.992188 475.792969 " style=" stroke:none;fill-rule:nonzero;fill:rgb(100%,92.941176%,70.588235%);fill-opacity:1;" />
<path d="M 444.125 370.140625 C 400.363281 370.140625 364.886719 405.617188 364.886719 449.378906 C 364.886719 493.144531 400.363281 528.621094 444.125 528.621094 C 487.890625 528.621094 523.367188 493.144531 523.367188 449.378906 C 523.320312 405.636719 487.871094 370.1875 444.125 370.140625 Z M 444.125 370.140625 " style=" stroke:none;fill-rule:nonzero;fill:url(#linear0);" />
<path d="M 549.78125 0.351562 C 506.019531 0.351562 470.539062 35.828125 470.539062 79.589844 C 470.539062 123.355469 506.019531 158.832031 549.78125 158.832031 C 593.542969 158.832031 629.023438 123.355469 629.023438 79.589844 C 628.972656 35.847656 593.523438 0.398438 549.78125 0.351562 Z M 549.78125 0.351562 " style=" stroke:none;fill-rule:nonzero;fill:rgb(100%,94.901961%,77.647059%);fill-opacity:1;" />
<path d="M 576.195312 132.417969 C 532.449219 132.4375 496.972656 96.992188 496.953125 53.25 C 496.949219 38.675781 500.960938 24.386719 508.554688 11.949219 C 471.183594 34.707031 459.335938 83.449219 482.089844 120.820312 C 504.847656 158.191406 553.589844 170.035156 590.960938 147.28125 C 601.769531 140.699219 610.839844 131.625 617.421875 120.820312 C 605.015625 128.417969 590.746094 132.433594 576.195312 132.417969 Z M 576.195312 132.417969 " style=" stroke:none;fill-rule:nonzero;fill:rgb(100%,92.941176%,70.588235%);fill-opacity:1;" />
<path d="M 259.230469 26.761719 C 215.46875 26.761719 179.992188 62.242188 179.992188 106.003906 C 179.992188 149.769531 215.46875 185.246094 259.230469 185.246094 C 302.996094 185.246094 338.472656 149.769531 338.472656 106.003906 C 338.421875 62.261719 302.976562 26.8125 259.230469 26.761719 Z M 259.230469 26.761719 " style=" stroke:none;fill-rule:nonzero;fill:url(#linear1);" />
</g>
</svg>