<svg xmlns="http://www.w3.org/2000/svg" height="633pt" version="1.1" viewBox="-2 0 633 633.11171" width="633pt">
<defs>
<linearGradient gradientTransform="matrix(2.666228,0,0,-2.666228,-18.361445,1817.207072)" gradientUnits="userSpaceOnUse" id="linear0" x1="92.5359" x2="178.9158" y1="529.7855" y2="616.1654">
<stop offset="0" style="stop-color:rgb(100%,60%,70.980392%);stop-opacity:1;" />
<stop offset="1" style="stop-color:rgb(100%,86.27451%,40.784314%);stop-opacity:1;" />
</linearGradient>
</defs>
<g id="surface1">
<path d="M 417.460938 215.59375 C 411.585938 209.71875 403.289062 206.953125 395.0625 208.128906 L 210.296875 234.523438 C 195.867188 236.585938 185.839844 249.957031 187.902344 264.386719 C 188.710938 270.039062 191.328125 275.277344 195.367188 279.316406 L 353.738281 437.6875 C 364.046875 447.992188 380.761719 447.992188 391.066406 437.683594 C 395.105469 433.648438 397.722656 428.410156 398.53125 422.757812 L 424.925781 237.988281 C 426.101562 229.765625 423.335938 221.46875 417.460938 215.59375 Z M 417.460938 215.59375 " style=" stroke:none;fill-rule:nonzero;fill:url(#linear0);" />
<path d="M 496.160156 510.179688 L 122.875 136.894531 C 112.566406 126.585938 95.855469 126.585938 85.546875 136.894531 C -28.089844 250.03125 -28.492188 433.867188 84.644531 547.507812 C 197.78125 661.144531 381.621094 661.546875 495.257812 548.410156 C 495.558594 548.109375 495.859375 547.808594 496.160156 547.507812 C 506.46875 537.199219 506.46875 520.488281 496.160156 510.179688 C 496.164062 510.179688 496.160156 510.179688 496.160156 510.179688 Z M 496.160156 510.179688 " style=" stroke:none;fill-rule:nonzero;fill:rgb(100%,89.803922%,55.686275%);fill-opacity:1;" />
<path d="M 346.941406 602.855469 C 186.617188 602.882812 56.621094 472.9375 56.59375 312.613281 C 56.582031 247.621094 78.382812 184.503906 118.496094 133.371094 C 108.054688 126.644531 94.332031 128.109375 85.546875 136.890625 C -27.835938 250.304688 -27.808594 434.15625 85.601562 547.539062 C 184.0625 645.972656 338.527344 660.667969 453.785156 582.570312 C 419.769531 596.007812 383.515625 602.890625 346.941406 602.855469 Z M 346.941406 602.855469 " style=" stroke:none;fill-rule:nonzero;fill:rgb(100%,86.27451%,40.784314%);fill-opacity:1;" />
<path d="M 524.171875 237.558594 L 471.382812 237.558594 C 471.332031 193.84375 435.910156 158.421875 392.195312 158.371094 L 392.195312 105.582031 C 465.050781 105.664062 524.089844 164.703125 524.171875 237.558594 Z M 524.171875 237.558594 " style=" stroke:none;fill-rule:nonzero;fill:rgb(100%,94.901961%,77.647059%);fill-opacity:1;" />
<path d="M 629.753906 237.558594 L 576.964844 237.558594 C 576.847656 135.5625 494.191406 52.90625 392.195312 52.789062 L 392.195312 0 C 523.335938 0.148438 629.609375 106.417969 629.753906 237.558594 Z M 629.753906 237.558594 " style=" stroke:none;fill-rule:nonzero;fill:rgb(100%,94.901961%,77.647059%);fill-opacity:1;" />
<path d="M 346.003906 524.605469 C 346.003906 539.183594 334.1875 551 319.609375 551 C 305.03125 551 293.214844 539.183594 293.214844 524.605469 C 293.214844 510.027344 305.03125 498.210938 319.609375 498.210938 C 334.1875 498.210938 346.003906 510.027344 346.003906 524.605469 Z M 346.003906 524.605469 " style=" stroke:none;fill-rule:nonzero;fill:rgb(100%,100%,100%);fill-opacity:1;" />
</g>
</svg>