<svg height="1227pt" viewBox="-30 0 1227 1227.2078" width="1227pt" xmlns="http://www.w3.org/2000/svg" xmlns:xlink="http://www.w3.org/1999/xlink"><linearGradient id="a" gradientTransform="matrix(.999831 0 0 -.999831 -30.3271 626.06073)" gradientUnits="userSpaceOnUse" x1="504.8614" x2="722.1104" y1="-556.1508" y2="-338.9017"><stop offset="0" stop-color="#ff99b5"/><stop offset="1" stop-color="#ffdc68"/></linearGradient><g fill="#ffedb4"><path d="m930.074219 348.867188c-14.078125-33.921876-40.320313-62.082032-72.960938-78.085938l46.082031-91.523438c55.042969 27.519532 97.925782 73.601563 121.609376 130.566407zm0 0"/><path d="m1071.523438 289.34375c-28.164063-67.84375-80.644532-123.527344-146.570313-156.808594l46.082031-91.527344c87.6875 44.164063 156.808594 117.765626 195.210938 208.652344zm0 0"/><path d="m236.273438 348.867188-94.726563-39.683594c23.683594-56.960938 67.203125-103.042969 121.609375-130.566406l46.082031 91.527343c-32.640625 16.640625-58.246093 44.800781-72.964843 78.722657zm0 0"/><path d="m94.824219 289.34375-94.7265628-39.042969c37.7617188-90.886719 106.8867188-164.488281 195.2109378-208.652343l46.085937 91.527343c-66.5625 32.640625-118.40625 88.324219-146.570312 156.167969zm0 0"/></g><path d="m583.175781 919.78125c-85.125 0-153.609375 68.484375-153.609375 153.609375s68.484375 153.609375 153.609375 153.609375 153.609375-68.484375 153.609375-153.609375c0-84.484375-69.125-153.609375-153.609375-153.609375zm0 0" fill="url(#a)"/><path d="m585.09375.046875c56.328125 0 102.410156 46.082031 102.410156 102.40625l-1.921875 305.296875h-204.816406l1.921875-305.296875c0-56.324219 46.082031-102.40625 102.40625-102.40625zm0 0" fill="#ffe58e"/><path d="m636.296875 14.128906c-48.644531-28.800781-111.367187-12.160156-139.527344 37.121094-8.960937 15.359375-14.082031 33.285156-14.082031 51.203125l-1.917969 305.300781h102.40625l1.921875-305.300781c-.003906-36.484375 19.199219-70.402344 51.199219-88.324219zm0 0" fill="#ffdc68"/><path d="m987.679688 999.144531c-1.28125-1.917969-97.289063-196.488281-97.289063-386.582031 0-169.609375-137.609375-307.21875-307.21875-307.21875s-307.21875 137.609375-307.21875 307.21875c0 190.09375-96.007813 384.664062-97.285156 386.582031-12.800781 25.601563-2.5625 56.328125 23.039062 68.484375 7.042969 3.84375 14.722657 5.121094 23.042969 5.121094h716.84375c28.160156 0 51.203125-23.039062 51.203125-51.203125.003906-7.039063-1.917969-15.359375-5.117187-22.402344zm0 0" fill="#ffedb4"/><path d="m122.347656 970.984375h921.65625v102.410156h-921.65625zm0 0" fill="#ffe58e"/><path d="m736.785156 510.15625c0 28.28125-22.925781 51.203125-51.203125 51.203125-28.28125 0-51.203125-22.921875-51.203125-51.203125 0-28.277344 22.921875-51.203125 51.203125-51.203125 28.277344 0 51.203125 22.925781 51.203125 51.203125zm0 0" fill="#fff"/></svg>