<svg xmlns="http://www.w3.org/2000/svg" height="633pt" version="1.1" viewBox="-52 0 633 633.59999" width="633pt">
<defs>
<linearGradient gradientTransform="matrix(2.668384,0,0,-2.668384,-72.031328,1818.676021)" gradientUnits="userSpaceOnUse" id="linear0" x1="16.9346" x2="260.6575" y1="461.0623" y2="704.7852">
<stop offset="0" style="stop-color:rgb(100%,60%,70.980392%);stop-opacity:1;" />
<stop offset="1" style="stop-color:rgb(100%,86.27451%,40.784314%);stop-opacity:1;" />
</linearGradient>
</defs>
<g id="surface1">
<path d="M 451.679688 79.933594 C 352.71875 -23.441406 188.691406 -27.019531 85.316406 71.941406 C 82.597656 74.546875 79.929688 77.210938 77.324219 79.933594 C 28.402344 130.933594 0.332031 196.882812 0.332031 260.867188 C 0.332031 326.308594 29.128906 416.851562 73.703125 491.527344 C 128.535156 583.402344 196.292969 634 264.5 634 C 332.707031 634 400.464844 583.402344 455.296875 491.527344 C 499.867188 416.851562 528.667969 326.308594 528.667969 260.863281 C 528.667969 196.882812 500.597656 130.933594 451.679688 79.933594 Z M 211.667969 501.917969 C 197.078125 501.917969 185.25 490.089844 185.25 475.5 C 185.25 460.910156 197.078125 449.082031 211.667969 449.082031 C 226.257812 449.082031 238.082031 460.910156 238.082031 475.5 C 238.082031 490.089844 226.257812 501.917969 211.667969 501.917969 Z M 233.554688 391.71875 C 220.527344 404.386719 202.945312 411.261719 184.78125 410.792969 C 157.746094 410.792969 127.554688 397.800781 102.792969 373.039062 C 60.898438 331.144531 52.691406 273.707031 84.113281 242.273438 C 115.535156 210.84375 172.972656 219.058594 214.875 260.953125 C 256.78125 302.851562 264.976562 360.292969 233.554688 391.71875 Z M 317.332031 501.917969 C 302.742188 501.917969 290.917969 490.089844 290.917969 475.5 C 290.917969 460.910156 302.742188 449.082031 317.332031 449.082031 C 331.921875 449.082031 343.75 460.910156 343.75 475.5 C 343.75 490.089844 331.921875 501.917969 317.332031 501.917969 Z M 426.203125 373.039062 C 401.4375 397.804688 371.253906 410.796875 344.214844 410.796875 C 326.054688 411.265625 308.472656 404.390625 295.445312 391.722656 C 264.023438 360.296875 272.230469 302.859375 314.125 260.960938 C 356.023438 219.058594 413.453125 210.859375 444.890625 242.28125 C 476.324219 273.699219 468.101562 331.144531 426.203125 373.039062 Z M 426.203125 373.039062 " style=" stroke:none;fill-rule:nonzero;fill:url(#linear0);" />
</g>
</svg>