<svg height="1229pt" viewBox="-102 0 1229 1229.083" width="1229pt" xmlns="http://www.w3.org/2000/svg" xmlns:xlink="http://www.w3.org/1999/xlink"><linearGradient id="a" gradientTransform="matrix(.999933 0 0 -.999933 -102.3825 630.064762)" gradientUnits="userSpaceOnUse" x1="651.9297" x2="884.254" y1="76.8624" y2="309.1802"><stop offset="0" stop-color="#ff99b5"/><stop offset="1" stop-color="#ffdc68"/></linearGradient><path d="m972.992188 204.832031h-921.75l-51.2070318-51.207031v921.75c0 85.132812 68.4921878 153.625 153.6249998 153.625h819.332032c28.164062 0 51.210937-23.042969 51.210937-51.207031v-915.351563c0-28.164062-23.046875-57.609375-51.210937-57.609375zm0 0" fill="#ffedb4"/><path d="m153.660156 51.207031h768.121094v204.835938h-768.121094c-56.332031 0-102.417968-46.089844-102.417968-102.417969s46.085937-102.417969 102.417968-102.417969zm0 0" fill="#fff6d9"/><path d="m1024.203125 307.25h-870.542969c-85.132812 0-153.6249998-68.488281-153.6249998-153.625 0-85.132812 68.4882818-153.625 153.6249998-153.625h870.539063v102.417969h-870.539063c-28.167968 0-51.210937 23.042969-51.210937 51.207031 0 28.167969 23.042969 51.210938 51.210937 51.210938h870.539063v102.414062zm0 0" fill="#ffe58e"/><path d="m723.992188 574.171875-58.25-62.089844-58.25 62.089844c-15.363282 16.644531-44.167969 5.125-44.167969-17.28125v-249.640625h204.835937v249c0 23.046875-28.808594 33.925781-44.167968 17.921875zm0 0" fill="url(#a)"/><g fill="#ffdc68"><path d="m307.28125 716.917969h409.667969v102.417969h-409.667969zm0 0"/><path d="m307.28125 921.75h409.667969v102.417969h-409.667969zm0 0"/></g></svg>