<?xml version="1.0"?>
<svg xmlns="http://www.w3.org/2000/svg" height="512px" viewBox="-85 0 512 512" width="512px" class=""><g><path d="m170.667969 0c-51.199219 51.199219-170.667969 68.265625-170.667969 68.265625v264.023437c0 47.957032 25.164062 92.402344 66.285156 117.078126l104.382813 62.632812 104.378906-62.632812c41.125-24.675782 66.289063-69.121094 66.285156-117.078126v-264.023437c-119.464843 0-170.664062-68.265625-170.664062-68.265625zm0 0" fill="#ff6243" data-original="#FF6243" class="active-path" style="fill:#6574CD" data-old_color="#6574cd"/><path d="m136.535156 341.332031c-4.527344 0-8.867187-1.796875-12.066406-5l-51.199219-51.199219 24.128907-24.132812 39.136718 39.132812 124.464844-124.464843 24.132812 24.132812-136.535156 136.53125c-3.199218 3.203125-7.539062 5-12.0625 5zm0 0" fill="#ff9811" data-original="#FF9811" class="" style="fill:#D1D5F0" data-old_color="#d1d5f0"/></g> </svg>
