<svg xmlns="http://www.w3.org/2000/svg" height="654pt" version="1.1" viewBox="0 -2 654.70041 654" width="654pt">
<g id="surface1">
<path d="M 4.699219 112.449219 L 453 112.449219 L 453 291.75 L 27.101562 291.75 C 14.699219 291.75 4.699219 281.75 4.699219 269.351562 Z M 4.699219 112.449219 " style=" stroke:none;fill-rule:nonzero;fill:rgb(81.960784%,82.745098%,83.137255%);fill-opacity:1;" />
<path d="M 452.898438 22.75 C 452.898438 10.351562 442.898438 0.351562 430.5 0.351562 L 27.101562 0.351562 C 14.699219 0.351562 4.699219 10.351562 4.699219 22.75 L 4.699219 67.550781 L 453 67.550781 L 453 22.75 Z M 452.898438 22.75 " style=" stroke:none;fill-rule:nonzero;fill:rgb(81.960784%,82.745098%,83.137255%);fill-opacity:1;" />
<path d="M 4.699219 67.550781 L 453 67.550781 L 453 112.351562 L 4.699219 112.351562 Z M 4.699219 67.550781 " style=" stroke:none;fill-rule:nonzero;fill:rgb(34.509804%,34.901961%,35.686275%);fill-opacity:1;" />
<path d="M 537.398438 558.851562 C 560.398438 563.851562 582.601562 571.949219 603.300781 583.148438 C 636.5 546.25 654.800781 498.351562 654.699219 448.648438 L 553.800781 448.648438 C 554.101562 485.949219 548.601562 523.148438 537.398438 558.851562 Z M 537.398438 558.851562 " style=" stroke:none;fill-rule:nonzero;fill:rgb(67.843137%,83.137255%,95.294118%);fill-opacity:1;" />
<path d="M 537.398438 338.449219 C 548.601562 374.050781 554.101562 411.25 553.800781 448.648438 L 654.699219 448.648438 C 654.699219 399.050781 636.398438 351.148438 603.300781 314.148438 C 582.5 325.351562 560.398438 333.449219 537.398438 338.449219 Z M 537.398438 338.449219 " style=" stroke:none;fill-rule:nonzero;fill:rgb(81.568627%,90.196078%,97.254902%);fill-opacity:1;" />
<path d="M 352.101562 448.648438 L 251.199219 448.648438 C 251.199219 498.25 269.5 546.148438 302.601562 583.148438 C 323.300781 571.949219 345.5 563.75 368.5 558.851562 C 357.300781 523.148438 351.800781 485.949219 352.101562 448.648438 Z M 352.101562 448.648438 " style=" stroke:none;fill-rule:nonzero;fill:rgb(40.784314%,69.019608%,90.980392%);fill-opacity:1;" />
<path d="M 368.5 338.449219 C 345.5 333.449219 323.300781 325.351562 302.601562 314.148438 C 269.398438 351.050781 251.101562 398.949219 251.199219 448.648438 L 352.101562 448.648438 C 351.800781 411.25 357.300781 374.050781 368.5 338.449219 Z M 368.5 338.449219 " style=" stroke:none;fill-rule:nonzero;fill:rgb(49.803922%,74.117647%,92.54902%);fill-opacity:1;" />
<path d="M 452.898438 347.75 L 452.898438 448.648438 L 553.800781 448.648438 C 554.101562 411.25 548.5 374.148438 537.398438 338.449219 C 509.699219 344.75 481.300781 347.851562 452.898438 347.75 Z M 452.898438 347.75 " style=" stroke:none;fill-rule:nonzero;fill:rgb(58.823529%,78.823529%,93.72549%);fill-opacity:1;" />
<path d="M 452.898438 549.449219 C 481.300781 549.351562 509.601562 552.449219 537.300781 558.75 C 548.5 523.148438 554 485.949219 553.800781 448.550781 L 452.898438 448.550781 Z M 452.898438 549.449219 " style=" stroke:none;fill-rule:nonzero;fill:rgb(49.803922%,74.117647%,92.54902%);fill-opacity:1;" />
<path d="M 452.898438 347.75 C 424.5 347.851562 396.199219 344.75 368.5 338.449219 C 357.300781 374.050781 351.800781 411.25 352 448.648438 L 452.898438 448.648438 Z M 452.898438 347.75 " style=" stroke:none;fill-rule:nonzero;fill:rgb(40.784314%,69.019608%,90.980392%);fill-opacity:1;" />
<path d="M 352.101562 448.648438 C 351.800781 486.050781 357.398438 523.148438 368.5 558.851562 C 396.199219 552.550781 424.5 549.449219 452.898438 549.550781 L 452.898438 448.648438 Z M 352.101562 448.648438 " style=" stroke:none;fill-rule:nonzero;fill:rgb(31.372549%,61.568627%,85.098039%);fill-opacity:1;" />
<path d="M 537.398438 338.449219 C 560.398438 333.449219 582.601562 325.351562 603.300781 314.148438 C 565.101562 271.351562 510.398438 246.851562 453 246.949219 C 488.300781 246.949219 519.398438 283.351562 537.398438 338.449219 Z M 537.398438 338.449219 " style=" stroke:none;fill-rule:nonzero;fill:rgb(85.882353%,92.54902%,98.039216%);fill-opacity:1;" />
<path d="M 452.898438 246.949219 C 395.5 246.851562 340.800781 271.351562 302.601562 314.148438 C 323.300781 325.351562 345.5 333.449219 368.5 338.449219 C 386.5 283.351562 417.601562 246.949219 452.898438 246.949219 Z M 452.898438 246.949219 " style=" stroke:none;fill-rule:nonzero;fill:rgb(58.823529%,78.823529%,93.72549%);fill-opacity:1;" />
<path d="M 368.5 338.449219 C 396.199219 344.75 424.5 347.851562 452.898438 347.75 L 452.898438 246.949219 C 417.601562 246.949219 386.5 283.351562 368.5 338.449219 Z M 368.5 338.449219 " style=" stroke:none;fill-rule:nonzero;fill:rgb(49.803922%,74.117647%,92.54902%);fill-opacity:1;" />
<path d="M 537.300781 338.449219 C 519.300781 283.351562 488.300781 246.851562 452.898438 246.851562 L 452.898438 347.75 C 481.300781 347.851562 509.601562 344.75 537.300781 338.449219 Z M 537.300781 338.449219 " style=" stroke:none;fill-rule:nonzero;fill:rgb(67.843137%,83.137255%,95.294118%);fill-opacity:1;" />
<path d="M 368.5 558.851562 C 345.5 563.851562 323.300781 571.949219 302.601562 583.148438 C 340.800781 625.949219 395.5 650.449219 452.898438 650.351562 C 417.601562 650.351562 386.5 613.851562 368.5 558.851562 Z M 368.5 558.851562 " style=" stroke:none;fill-rule:nonzero;fill:rgb(31.372549%,61.568627%,85.098039%);fill-opacity:1;" />
<path d="M 452.898438 650.351562 C 510.300781 650.449219 565 625.949219 603.199219 583.148438 C 582.5 571.949219 560.300781 563.75 537.300781 558.851562 C 519.398438 613.851562 488.300781 650.351562 452.898438 650.351562 Z M 452.898438 650.351562 " style=" stroke:none;fill-rule:nonzero;fill:rgb(58.823529%,78.823529%,93.72549%);fill-opacity:1;" />
<path d="M 537.398438 558.851562 C 509.699219 552.550781 481.398438 549.449219 453 549.550781 L 453 650.351562 C 488.300781 650.351562 519.398438 613.851562 537.398438 558.851562 Z M 537.398438 558.851562 " style=" stroke:none;fill-rule:nonzero;fill:rgb(40.784314%,69.019608%,90.980392%);fill-opacity:1;" />
<path d="M 368.601562 558.75 C 386.601562 613.851562 417.601562 650.351562 453 650.351562 L 453 549.449219 C 424.5 549.351562 396.199219 552.550781 368.601562 558.75 Z M 368.601562 558.75 " style=" stroke:none;fill-rule:nonzero;fill:rgb(30.196078%,56.078431%,76.078431%);fill-opacity:1;" />
<path d="M 94.300781 224.449219 C 94.300781 236.820312 84.269531 246.851562 71.898438 246.851562 C 59.527344 246.851562 49.5 236.820312 49.5 224.449219 C 49.5 212.078125 59.527344 202.050781 71.898438 202.050781 C 84.269531 202.050781 94.300781 212.078125 94.300781 224.449219 Z M 94.300781 224.449219 " style=" stroke:none;fill-rule:nonzero;fill:rgb(81.960784%,82.745098%,83.137255%);fill-opacity:1;" />
<path d="M 150.300781 224.449219 C 150.300781 236.820312 140.269531 246.851562 127.898438 246.851562 C 115.527344 246.851562 105.5 236.820312 105.5 224.449219 C 105.5 212.078125 115.527344 202.050781 127.898438 202.050781 C 140.269531 202.050781 150.300781 212.078125 150.300781 224.449219 Z M 150.300781 224.449219 " style=" stroke:none;fill-rule:nonzero;fill:rgb(81.960784%,82.745098%,83.137255%);fill-opacity:1;" />
<path d="M 15.898438 515.851562 L 217.601562 515.851562 L 217.601562 538.25 L 15.898438 538.25 Z M 15.898438 515.851562 " style=" stroke:none;fill-rule:nonzero;fill:rgb(100%,59.607843%,6.666667%);fill-opacity:1;" />
<path d="M 180.699219 579.851562 L 164.800781 563.949219 L 201.699219 527.050781 L 164.800781 490.148438 L 180.699219 474.351562 L 233.398438 527.050781 Z M 180.699219 579.851562 " style=" stroke:none;fill-rule:nonzero;fill:rgb(100%,59.607843%,6.666667%);fill-opacity:1;" />
<path d="M 15.898438 370.148438 L 217.601562 370.148438 L 217.601562 392.550781 L 15.898438 392.550781 Z M 15.898438 370.148438 " style=" stroke:none;fill-rule:nonzero;fill:rgb(100%,59.607843%,6.666667%);fill-opacity:1;" />
<path d="M 52.800781 434.148438 L 0 381.351562 L 52.800781 328.648438 L 68.601562 344.449219 L 31.699219 381.351562 L 68.601562 418.25 Z M 52.800781 434.148438 " style=" stroke:none;fill-rule:nonzero;fill:rgb(100%,59.607843%,6.666667%);fill-opacity:1;" />
<path d="M 127.898438 190.851562 C 116.601562 190.851562 106.101562 196.550781 99.898438 205.949219 C 107.398438 217.148438 107.398438 231.75 99.898438 242.949219 C 110.101562 258.449219 130.898438 262.75 146.5 252.550781 C 162.101562 242.351562 166.300781 221.550781 156.101562 205.949219 C 149.898438 196.550781 139.300781 190.851562 127.898438 190.851562 Z M 127.898438 235.648438 C 121.699219 235.648438 116.699219 230.648438 116.699219 224.449219 C 116.699219 218.25 121.699219 213.25 127.898438 213.25 C 134.101562 213.25 139.101562 218.25 139.101562 224.449219 C 139.101562 230.648438 134.101562 235.648438 127.898438 235.648438 Z M 127.898438 235.648438 " style=" stroke:none;fill-rule:nonzero;fill:rgb(100%,83.137255%,13.333333%);fill-opacity:1;" />
<path d="M 99.898438 205.949219 C 89.699219 190.648438 68.898438 186.449219 53.601562 196.648438 C 38.300781 206.851562 34.101562 227.648438 44.300781 242.949219 C 54.5 258.25 75.300781 262.449219 90.601562 252.25 C 99.898438 246.050781 105.5 235.648438 105.5 224.449219 C 105.5 217.949219 103.601562 211.449219 99.898438 205.949219 Z M 71.898438 235.648438 C 65.699219 235.648438 60.699219 230.648438 60.699219 224.449219 C 60.699219 218.25 65.699219 213.25 71.898438 213.25 C 78.101562 213.25 83.101562 218.25 83.101562 224.449219 C 83.101562 230.648438 78.101562 235.648438 71.898438 235.648438 Z M 71.898438 235.648438 " style=" stroke:none;fill-rule:nonzero;fill:rgb(100%,31.372549%,13.72549%);fill-opacity:1;" />
</g>
</svg>